<?xml version="1.0" encoding="UTF-8"?>
<svg id="Layer_2" data-name="Layer 2" xmlns="http://www.w3.org/2000/svg" xmlns:xlink="http://www.w3.org/1999/xlink" viewBox="0 0 781.91 654.77">
  <defs>
    <style>
      .cls-1 {
        stroke-miterlimit: 10;
      }

      .cls-1, .cls-2, .cls-3 {
        fill: none;
      }

      .cls-1, .cls-3 {
        stroke: #2e2926;
      }

      .cls-4 {
        fill: #1c1917;
      }

      .cls-5 {
        clip-path: url(#clippath);
      }

      .cls-6 {
        fill: url(#New_Pattern_Swatch_2);
      }
    </style>
    <clipPath id="clippath">
      <rect class="cls-2" x="0" y="0" width="195.55" height="327.35"/>
    </clipPath>
    <pattern id="New_Pattern_Swatch_2" data-name="New Pattern Swatch 2" x="0" y="0" width="195.55" height="327.35" patternTransform="translate(1106.5 560.92)" patternUnits="userSpaceOnUse" viewBox="0 0 195.55 327.35">
      <g>
        <rect class="cls-2" x="0" y="0" width="195.55" height="327.35"/>
        <g class="cls-5">
          <g>
            <rect class="cls-4" x="0" y="0" width="195.55" height="327.35"/>
            <g>
              <path class="cls-3" d="M88.4,83.88l4.62-.97,3.77,17.9,7.52-1.58-5.11-24.61-5.11.59-7.19,1.51,1.51,7.15Z"/>
              <path class="cls-3" d="M130.24,87.37l-7.66,1.89c1.79-2.07,3.11-4.14,3.95-6.2.84-2.06,1.06-4.02.67-5.89-.36-1.71-1.03-3.17-2-4.36-.98-1.19-2.18-2.04-3.61-2.53-1.43-.49-3-.56-4.69-.2-1.71.36-3.18,1.07-4.41,2.13-1.22,1.06-2.1,2.35-2.63,3.86-.53,1.51-.67,3.1-.41,4.77l6.35-.27c-.17-.81-.05-1.56.36-2.23.41-.67.97-1.08,1.67-1.23.66-.14,1.22-.05,1.67.25.46.31.74.74.86,1.32.22,1.05-.11,2.41-.99,4.06-.88,1.65-2.04,3.32-3.48,5-1.44,1.68-2.81,3.07-4.12,4.17l1.67,5.47,18.79-3.99-1.99-6.02Z"/>
              <path class="cls-3" d="M149.75,72.91l3.31-4.07-1.34-5.71-16.18,3.44,1.24,5.9,7.93-1.77-3.78,5.1,3.18,3.98c.58-.63,1.27-1.03,2.09-1.2.77-.16,1.47-.04,2.09.35.62.4,1.01.97,1.17,1.72.18.86.06,1.61-.35,2.26-.41.65-1.04,1.06-1.87,1.24-.64.13-1.31.09-2.02-.13-.71-.22-1.23-.56-1.56-1.01l-4.87,3.88c1.15,1.43,2.63,2.49,4.45,3.16,1.82.67,3.65.82,5.5.43,2.95-.62,5.06-1.87,6.34-3.76,1.28-1.89,1.64-4.17,1.07-6.85-.37-1.74-1.13-3.22-2.28-4.46-1.16-1.24-2.52-2.07-4.11-2.49Z"/>
            </g>
            <g>
              <path class="cls-3" d="M27.04,249.77l2.9-7.3-7.21-.75-2.16,5.34-1.77-.74,4.38-12.07-6.79-2.14-6.46,17.66,8.11,3.61-2.29,5.69,6.69,2.31,2.05-5.13,3.08,1.38,2.5-6.62-3.02-1.25Z"/>
              <path class="cls-3" d="M47.86,252.23c-.59-.22-1.27-.42-2.04-.59l.89-1.79,9.08,3.43,2.13-5.64-14.4-5.45-5.6,11.39-.06.05-.06.16.24.02,3.89,3.81c.83-.67,1.9-.76,3.2-.27.74.28,1.26.78,1.57,1.51.31.73.33,1.46.05,2.2-.31.82-.81,1.38-1.5,1.68-.69.3-1.45.3-2.26-.01-.59-.22-1.09-.6-1.51-1.15-.42-.54-.66-1.12-.71-1.74l-6.39,1.08c.43,1.92,1.27,3.61,2.51,5.07,1.25,1.47,2.66,2.5,4.23,3.09,1.53.58,3.09.71,4.68.4,1.58-.31,3.01-1.01,4.28-2.09,1.27-1.08,2.22-2.44,2.84-4.08.59-1.58.77-3.11.53-4.59-.24-1.49-.85-2.8-1.83-3.93-.98-1.14-2.23-1.99-3.76-2.57Z"/>
              <path class="cls-3" d="M75.01,262.17c1.04-.47,2.06-.84,3.07-1.11,1-.27,1.89-.43,2.65-.48l-2.72-6.14c-3.2.45-5.99,1.32-8.39,2.62-2.4,1.3-4.33,2.77-5.79,4.4-1.46,1.63-2.49,3.24-3.08,4.81-.56,1.49-.7,3.08-.4,4.77.3,1.69,1.01,3.23,2.12,4.62,1.12,1.39,2.54,2.42,4.26,3.07,1.55.59,3.16.76,4.82.53,1.66-.24,3.16-.84,4.49-1.82s2.28-2.22,2.85-3.73c.52-1.39.73-2.8.63-4.25-.1-1.44-.53-2.81-1.28-4.09-.75-1.28-1.83-2.35-3.23-3.22ZM68.95,272.28c-.73-.28-1.26-.74-1.59-1.37-.32-.64-.36-1.28-.12-1.93h.03s.18-.46.18-.46c.31-.51.76-.85,1.35-1.04.59-.19,1.21-.16,1.86.09.8.3,1.34.77,1.63,1.39.29.63.3,1.3.03,2.01-.24.63-.67,1.08-1.3,1.35-.63.27-1.32.26-2.08-.03Z"/>
            </g>
            <path class="cls-3" d="M109.71,172.15c.56-1.49.7-3.08.4-4.77-.3-1.69-1.01-3.23-2.12-4.62-1.12-1.39-2.54-2.42-4.26-3.07-1.55-.59-3.16-.76-4.82-.53-1.66.24-3.16.84-4.49,1.82-1.33.97-2.28,2.22-2.85,3.73-.52,1.39-.73,2.8-.63,4.24.1,1.44.53,2.81,1.28,4.09.75,1.28,1.83,2.36,3.23,3.22-1.04.47-2.07.84-3.07,1.11-1,.27-1.88.43-2.65.48l2.72,6.14c3.2-.45,5.99-1.32,8.4-2.62,2.4-1.3,4.33-2.77,5.79-4.4,1.46-1.63,2.48-3.24,3.08-4.81ZM101.5,166.16c.73.28,1.26.74,1.59,1.37.32.64.36,1.28.11,1.94h-.03s-.18.46-.18.46c-.31.51-.76.85-1.35,1.04-.59.19-1.21.16-1.86-.09-.8-.3-1.34-.76-1.64-1.39-.29-.63-.3-1.3-.03-2.01.24-.63.67-1.08,1.3-1.35.63-.27,1.32-.26,2.08.03Z"/>
            <path class="cls-3" d="M17.9,23.17c.61-1.62.75-3.34.43-5.17-.32-1.83-1.09-3.5-2.3-5.01-1.21-1.51-2.75-2.62-4.62-3.33-1.68-.64-3.43-.83-5.23-.57-1.8.26-3.42.91-4.86,1.97-1.44,1.06-2.47,2.4-3.09,4.04-.57,1.5-.8,3.04-.68,4.6.11,1.56.57,3.04,1.39,4.43.82,1.39,1.98,2.55,3.5,3.49-1.13.51-2.24.91-3.32,1.2-1.09.29-2.04.46-2.87.52l2.95,6.66c3.46-.49,6.5-1.43,9.1-2.85,2.6-1.41,4.69-3,6.27-4.77,1.58-1.77,2.69-3.51,3.34-5.22ZM8.99,16.68c.8.3,1.37.8,1.72,1.49.35.69.39,1.39.12,2.1h-.03s-.19.5-.19.5c-.34.55-.82.92-1.46,1.13-.64.2-1.31.17-2.01-.1-.87-.33-1.46-.83-1.77-1.51-.32-.68-.33-1.41-.04-2.18.26-.68.73-1.17,1.41-1.46.68-.29,1.43-.28,2.25.03Z"/>
            <path class="cls-3" d="M36.32,230.22l2.45-6.48-14.68-5.55-2.45,6.48,14.68,5.55ZM39.42,222.53l2.3-6.09-14.66-5.95-2.44,6.44,14.8,5.59Z"/>
            <path class="cls-3" d="M23.7,93.22l-.55-6.48-15.8.96.58,6.86,15.76-1.34ZM24.23,101.5l-.59-6.91-15.63,1.33.59,6.91,15.63-1.33Z"/>
            <path class="cls-3" d="M171.77,85.49l3.92-4.87-11.03-8.88-3.92,4.87,11.03,8.88ZM176.58,79.76l3.68-4.57-10.9-9.22-3.9,4.84,11.12,8.95Z"/>
            <path class="cls-3" d="M104.46,120.8l6.31,3.41,7.72-14.28-6.31-3.41-7.72,14.28ZM111.92,125.04l5.92,3.2,8.14-14.21-6.27-3.39-7.79,14.4Z"/>
            <path class="cls-3" d="M176.38,99.88c.66-1.11.98-2.22.95-3.32-.03-1.1-.31-2.09-.85-2.97-.67-1.09-1.62-1.9-2.86-2.42-1.24-.52-2.61-.71-4.11-.55-1.5.15-2.94.65-4.32,1.49-1.38.84-2.49,1.91-3.34,3.2-.84,1.29-1.34,2.61-1.49,3.97-.15,1.35.09,2.55.72,3.58.58.96,1.43,1.66,2.53,2.11,1.1.45,2.38.61,3.83.49-.79,1.08-1.23,2.36-1.34,3.82-.11,1.46.18,2.76.87,3.89.7,1.15,1.71,1.98,3.04,2.49,1.32.51,2.79.65,4.41.43,1.61-.22,3.21-.81,4.78-1.77,1.51-.92,2.7-2.03,3.55-3.31.85-1.28,1.31-2.6,1.37-3.97.06-1.37-.28-2.66-1.03-3.89-.76-1.25-1.77-2.16-3.03-2.73s-2.49-.75-3.69-.51ZM168.08,96.89c.65-.4,1.3-.58,1.95-.56.65.03,1.14.31,1.46.84.48.79.23,1.82-.75,3.1-.95.34-1.77.5-2.45.47-.69-.03-1.18-.29-1.49-.79-.29-.48-.32-1.01-.08-1.59.24-.58.69-1.07,1.37-1.48ZM176.15,109.61c-.75.46-1.47.69-2.18.7-.7,0-1.25-.3-1.64-.94-.28-.46-.35-1.01-.21-1.67.14-.65.6-1.34,1.36-2.07,1.13-.27,2.03-.32,2.71-.17.68.15,1.15.43,1.41.86.32.57.33,1.15.03,1.76-.3.6-.8,1.12-1.49,1.54Z"/>
            <path class="cls-3" d="M135.53,189.98l-17.94,3.6,1.33,6.61,8.66-2.05c-.89,2.08-1.87,5.46-2.95,10.14-.66,2.88-1.2,6.36-1.62,10.43l8.06-1.62c.34-2.66.64-4.8.92-6.44.28-1.64.58-3.02.9-4.17.98-3.77,2.34-7.29,4.07-10.54l-1.44-5.97Z"/>
            <g>
              <path class="cls-1" d="M58.62,94.44c-3.54,2.61-7.45,5.34-11.85,5.2-1.44-.05-2.9-.41-4.32-.17-1.05.18-2.01.68-2.95,1.17-10.95,5.69-21.9,11.38-32.86,17.07-.38.2-.79.43-.81.86-.02.43.16.84.33,1.23,2.11,4.63,4.81,8.99,8.02,12.94.4.12.61-.26.99-.44,11.31-5.35,22.62-10.7,33.93-16.05,1.74-.83,2.19-2.21,2.69-4.07.5-1.86.62-3.86,1.52-5.57.79-1.5,2.12-2.65,3.48-3.66,2.73-2.04,5.74-3.71,8.91-4.97-1.98-1.33-4.91-2.52-7.07-3.53Z"/>
              <path class="cls-1" d="M56.23,96.48c1.44,1.47,2.87,2.94,4.31,4.41"/>
              <path class="cls-1" d="M53.99,97.45c1.42,1.46,2.81,2.94,4.18,4.44"/>
              <path class="cls-1" d="M40.8,100.1c3.03,5.19,6.08,10.36,9.16,15.51"/>
              <path class="cls-1" d="M38.79,101.04c3.09,5.24,6.18,10.49,9.27,15.73"/>
              <path class="cls-1" d="M12.69,117.09c6.84-3.34,13.58-6.89,20.21-10.63"/>
              <path class="cls-1" d="M8.31,116.7c2.71,5.01,5.56,9.95,8.52,14.82"/>
            </g>
            <g>
              <path class="cls-1" d="M140.44,184.01c3.45,2.74,7.1,5.8,8.11,10.08.33,1.41.36,2.9.97,4.21.45.96,1.18,1.76,1.9,2.55,8.35,9.09,16.71,18.17,25.06,27.26.29.32.62.65,1.04.56.42-.09.77-.37,1.1-.64,3.92-3.25,7.42-6.99,10.4-11.12,0-.42-.41-.52-.68-.84-8.12-9.52-16.24-19.04-24.36-28.56-1.25-1.47-2.7-1.54-4.63-1.53s-3.89.41-5.77-.02c-1.66-.37-3.11-1.35-4.44-2.4-2.68-2.11-5.08-4.57-7.12-7.3-.77,2.26-1.15,5.4-1.56,7.75Z"/>
              <path class="cls-1" d="M143.04,185.79c1.05-1.77,2.09-3.54,3.14-5.31"/>
              <path class="cls-1" d="M144.56,187.69c1.04-1.75,2.1-3.48,3.19-5.2"/>
              <path class="cls-1" d="M150.56,199.74c4.22-4.27,8.41-8.57,12.58-12.89"/>
              <path class="cls-1" d="M152,201.43c4.25-4.35,8.51-8.71,12.76-13.06"/>
              <path class="cls-1" d="M174.3,222.44c-5.01-5.73-10.2-11.31-15.54-16.73"/>
              <path class="cls-1" d="M175.07,226.76c4.13-3.93,8.16-7.96,12.08-12.09"/>
            </g>
            <g>
              <path class="cls-1" d="M142.07,102.55c-1.38,4.18-2.98,8.67-6.65,11.1-1.21.8-2.6,1.34-3.62,2.37-.75.75-1.25,1.72-1.73,2.66-5.63,10.98-11.27,21.96-16.9,32.95-.2.38-.4.81-.17,1.17s.61.59.98.81c4.4,2.55,9.13,4.54,14.03,5.9.39-.14.34-.57.55-.93,6.12-10.91,12.24-21.82,18.36-32.74.94-1.68.5-3.07-.17-4.88s-1.73-3.51-1.98-5.42c-.23-1.68.19-3.39.72-5,1.05-3.25,2.53-6.35,4.39-9.21-2.38.06-5.46.79-7.81,1.22Z"/>
              <path class="cls-1" d="M141.3,105.6c2.02.37,4.04.74,6.07,1.1"/>
              <path class="cls-1" d="M140.04,107.68c2,.37,3.99.76,5.98,1.2"/>
              <path class="cls-1" d="M130.82,117.48c5.47,2.48,10.95,4.92,16.45,7.34"/>
              <path class="cls-1" d="M129.73,119.41c5.56,2.48,11.11,4.97,16.67,7.45"/>
              <path class="cls-1" d="M117.74,147.61c3.64-6.69,7.08-13.48,10.32-20.37"/>
              <path class="cls-1" d="M113.95,149.83c5.12,2.51,10.29,4.9,15.53,7.15"/>
            </g>
            <g>
              <path class="cls-1" d="M190.5,63.25c-2.6-3.55-5.33-7.46-5.18-11.86.05-1.44.42-2.89.18-4.32-.18-1.05-.67-2.01-1.16-2.96-5.67-10.96-11.34-21.93-17.01-32.89-.2-.38-.43-.79-.86-.81-.43-.02-.84.15-1.23.33-4.63,2.1-9,4.8-12.95,8-.12.4.26.61.44.99,5.33,11.32,10.66,22.64,15.99,33.96.82,1.75,2.2,2.19,4.07,2.69,1.86.5,3.86.63,5.56,1.53,1.5.79,2.64,2.12,3.66,3.49,2.03,2.74,3.7,5.74,4.95,8.92,1.33-1.98,2.53-4.91,3.54-7.07Z"/>
              <path class="cls-1" d="M188.46,60.85c-1.47,1.43-2.95,2.87-4.42,4.3"/>
              <path class="cls-1" d="M187.5,58.61c-1.46,1.42-2.94,2.81-4.45,4.18"/>
              <path class="cls-1" d="M184.87,45.42c-5.19,3.02-10.37,6.06-15.53,9.13"/>
              <path class="cls-1" d="M183.93,43.41c-5.25,3.08-10.5,6.16-15.75,9.24"/>
              <path class="cls-1" d="M167.93,17.27c3.33,6.84,6.87,13.59,10.6,20.23"/>
              <path class="cls-1" d="M168.32,12.9c-5.02,2.71-9.96,5.54-14.84,8.49"/>
            </g>
            <g>
              <path class="cls-1" d="M61.87,142.76c-1.98-8-3.99-16.17-5.97-24.17-1.69,2.2-3.32,4.43-4.9,6.71,1.83,7.37,3.54,14.86,5.37,22.23,1.77-1.78,3.73-2.99,5.5-4.77Z"/>
              <path class="cls-1" d="M56.4,147.63c12.7-2.57,25.4-5.14,38.1-7.72"/>
              <path class="cls-1" d="M61.93,142.61c12.37-2.99,25.81-5.7,38.3-8.14"/>
              <path class="cls-1" d="M94.5,139.92c2.07-1.86,3.67-3.59,5.73-5.45"/>
              <path class="cls-1" d="M94.5,110.66c1.82,7.88,4.05,16.37,5.73,23.81"/>
              <path class="cls-1" d="M73.96,131.43c-3.11.69-6.17,1.22-9.29,1.84-.79-3.51-1.7-7-2.67-10.46,9.86-2.43,19.8-4.56,29.8-6.39.7,3.27,1.17,6.41,1.87,9.68-3.46.67-7.15,1.44-10.59,2.22"/>
              <path class="cls-1" d="M79.07,125.08c-1.84-.24-3.79.64-4.82,2.19s-1.08,3.69-.14,5.29c.23.39.52.76.88,1.04.64.5,1.46.72,2.27.83.57.08,1.15.11,1.72.03,5.12-.76,5.54-8.66.08-9.38Z"/>
              <path class="cls-1" d="M78.83,130.35c.37-.15.64-.54.67-.94.03-.4-.18-.81-.51-1.04-.27-.18-.63-.25-.92-.12-.13.06-.24.15-.34.25-.22.22-.4.51-.39.82.02.73.8,1.32,1.5,1.03Z"/>
              <path class="cls-1" d="M59.24,132.99c-.04-.92-.38-1.85-1.05-2.47-.67-.62-1.72-.87-2.55-.48-.71.34-1.15,1.05-1.48,1.77-.45,1-.74,2.12-.56,3.2.26,1.59,1.56,3.05,3.2,2.33,1.61-.7,2.52-2.67,2.44-4.36Z"/>
              <path class="cls-1" d="M62.92,126.2s20.21-4.61,29.56-6.29"/>
              <path class="cls-1" d="M55.9,118.59s4.33-1.33,8.84-1.95c4.51-.62,5.26,1.24,10.71.26,5.45-.97,5.01-4.39,9.03-4.95,4.02-.56,10.08-1.54,10.08-1.54"/>
            </g>
            <g>
              <path class="cls-1" d="M154.98,135.56c8.13-1.35,16.43-2.73,24.56-4.08-2.06-1.85-4.16-3.65-6.31-5.4-7.49,1.25-15.09,2.38-22.58,3.63,1.63,1.9,2.7,3.95,4.33,5.85Z"/>
              <path class="cls-1" d="M150.55,129.72c1.58,12.86,3.16,25.72,4.75,38.58"/>
              <path class="cls-1" d="M155.12,135.63c2.03,12.56,3.68,26.17,5.16,38.81"/>
              <path class="cls-1" d="M155.29,168.31c1.69,2.2,3.29,3.93,4.99,6.14"/>
              <path class="cls-1" d="M184.46,170.57c-7.99,1.21-16.63,2.77-24.18,3.87"/>
              <path class="cls-1" d="M165.34,148.48c-.45-3.15-.74-6.25-1.12-9.41,3.56-.51,7.11-1.16,10.63-1.85,1.66,10.02,3.02,20.1,4.07,30.2-3.31.44-6.49.67-9.79,1.11-.4-3.5-.88-7.24-1.39-10.73"/>
              <path class="cls-1" d="M171.28,154.08c.39-1.82-.35-3.83-1.81-4.97-1.47-1.14-3.59-1.36-5.26-.55-.41.2-.8.46-1.11.8-.55.6-.83,1.4-1,2.2-.12.56-.2,1.14-.16,1.72.36,5.16,8.2,6.19,9.34.8Z"/>
              <path class="cls-1" d="M166.04,153.43c.12.38.48.68.89.74.4.06.82-.11,1.08-.43.2-.25.3-.61.19-.91-.05-.13-.13-.25-.23-.36-.2-.23-.47-.44-.78-.45-.73-.03-1.38.7-1.14,1.41Z"/>
              <path class="cls-1" d="M164.93,133.69c.92.03,1.87-.23,2.54-.86.67-.62,1-1.65.68-2.5-.28-.73-.96-1.23-1.65-1.61-.96-.53-2.05-.9-3.15-.81-1.6.14-3.16,1.32-2.57,3.01.57,1.66,2.47,2.72,4.15,2.77Z"/>
              <path class="cls-1" d="M171.41,137.88s3.03,20.5,3.99,29.96"/>
              <path class="cls-1" d="M179.53,131.48s.99,4.42,1.27,8.96c.27,4.54-1.64,5.15-1.09,10.65.55,5.51,3.98,5.33,4.24,9.38s.75,10.17.75,10.17"/>
            </g>
            <g>
              <path class="cls-1" d="M102.43,212.77c1.25,8.14,2.52,16.46,3.78,24.61,1.88-2.04,3.71-4.12,5.48-6.24-1.16-7.5-2.19-15.12-3.35-22.62-1.92,1.61-3.99,2.65-5.91,4.26Z"/>
              <path class="cls-1" d="M108.32,208.42c-12.88,1.42-25.76,2.85-38.64,4.27"/>
              <path class="cls-1" d="M102.36,212.92c-12.58,1.87-26.21,3.36-38.87,4.68"/>
              <path class="cls-1" d="M69.68,212.68c-2.23,1.67-3.97,3.24-6.2,4.91"/>
              <path class="cls-1" d="M67.06,241.82c-1.11-8.01-2.57-16.67-3.58-24.22"/>
              <path class="cls-1" d="M89.38,222.98c3.16-.41,6.26-.67,9.42-1,.47,3.56,1.07,7.12,1.72,10.65-10.04,1.54-20.13,2.77-30.25,3.69-.4-3.31-.59-6.49-.99-9.81,3.51-.35,7.25-.79,10.75-1.26"/>
              <path class="cls-1" d="M83.72,228.84c1.81.41,3.83-.3,4.99-1.75s1.41-3.58.61-5.25c-.2-.41-.45-.8-.79-1.12-.59-.56-1.39-.84-2.19-1.03-.56-.13-1.14-.22-1.71-.18-5.17.29-6.29,8.12-.92,9.33Z"/>
              <path class="cls-1" d="M84.43,223.62c-.39.12-.68.48-.75.88-.06.4.1.82.42,1.08.25.21.6.31.91.2.13-.05.25-.13.36-.22.24-.2.44-.47.46-.78.04-.73-.68-1.38-1.4-1.16Z"/>
              <path class="cls-1" d="M104.18,222.75c-.04.92.21,1.87.83,2.55.62.68,1.63,1.02,2.49.71.74-.27,1.24-.95,1.63-1.63.54-.96.93-2.04.85-3.14-.12-1.6-1.28-3.17-2.98-2.61-1.67.55-2.75,2.43-2.82,4.12Z"/>
              <path class="cls-1" d="M99.91,229.18s-20.54,2.78-30.01,3.62"/>
              <path class="cls-1" d="M106.21,237.38s-4.43.94-8.98,1.15c-4.54.22-5.13-1.7-10.64-1.22-5.51.48-5.38,3.92-9.44,4.12-4.05.2-10.18.63-10.18.63"/>
            </g>
            <g>
              <path class="cls-1" d="M15.71,148.45s17.78-5.94,29.67,7.72c0,0,16.9-8.11,31.81,2.18l-3.89,37.01s-16.31-7.92-32.5-2.77c0,0-6.09-11.68-30.43-8.51l5.34-35.62Z"/>
              <path class="cls-1" d="M10.37,184.07v3.56s16.23-1.19,29.49,7.72c0,0,24.29-3.36,31.93,3.17l1.51-3.17"/>
              <polyline class="cls-1" points="45.38 156.17 40.8 192.58 39.85 195.35 39.27 198.88"/>
              <path class="cls-1" d="M76.94,160.73s1.96-.21,4.5.98l-4.5,39.58s-26.2-4.55-35.11-1.98l-4.75-.79s-11.87-8.51-32.85-9.1l6.93-39.98s2.47-.59,4.4,0"/>
              <path class="cls-1" d="M4.23,189.42l1.59,3.17s18.32.59,29.93,8.71l7.08,1.19s10.37-2.97,32.59,1.78l1.52-2.97"/>
              <line class="cls-1" x1="35.76" y1="201.29" x2="37.08" y2="198.52"/>
              <line class="cls-1" x1="42.84" y1="202.48" x2="41.83" y2="199.31"/>
              <path class="cls-1" d="M48.79,160.02s13.76-5.4,24.51,1.69"/>
              <path class="cls-1" d="M48.79,164.58s10.55-4.56,24.51,1.86"/>
              <path class="cls-1" d="M48.07,169.98s12.25-4.72,24.03,3.04"/>
              <path class="cls-1" d="M46.6,179.43s12.58-4.22,23.84,2.7"/>
              <path class="cls-1" d="M54.75,184.07s7.3-2.12,15.69,2.95"/>
              <path class="cls-1" d="M19.26,152.09s13.61-3.29,22.57,6.92"/>
              <path class="cls-1" d="M19.26,157.32s13.63-3.04,21.54,5.69"/>
              <path class="cls-1" d="M18.25,163.01s13.71-2.14,22.34,6.13"/>
              <path class="cls-1" d="M16.83,173.01s13.65-4.05,21.96,5.91"/>
            </g>
            <g>
              <path class="cls-1" d="M46.65,294.66s13.49-13.02,30.1-5.82c0,0,11.75-14.61,29.64-11.75l12.44,35.07s-18.13-.11-30.52,11.51c0,0-10.53-7.91-31.13,5.44l-10.53-34.45Z"/>
              <path class="cls-1" d="M57.18,329.11l1.54,3.21s14.13-8.07,29.93-5.74c0,0,20.47-13.5,30.18-10.91v-3.51"/>
              <polyline class="cls-1" points="76.75 288.84 88.31 323.67 88.65 326.58 89.64 330.02"/>
              <path class="cls-1" d="M107.19,279.35s1.68-1.03,4.48-1.05l13,37.66s-25.61,7.19-32.53,13.35l-4.63,1.33s-14.38-2.56-33.57,5.94l-10.98-39.06s1.98-1.6,3.97-1.9"/>
              <path class="cls-1" d="M53.94,336.57l2.8,2.17s16.79-7.36,30.76-5.04l6.9-1.98s8.08-7.15,30.17-12.44l.09-3.33"/>
              <line class="cls-1" x1="87.51" y1="333.7" x2="87.51" y2="330.63"/>
              <line class="cls-1" x1="94.41" y1="331.72" x2="92.14" y2="329.3"/>
              <path class="cls-1" d="M81.48,290.85s10.09-10.8,22.84-9.04"/>
              <path class="cls-1" d="M83.45,294.96s7.56-8.66,22.92-8.89"/>
              <path class="cls-1" d="M85.12,300.14s9.01-9.54,22.99-7.62"/>
              <path class="cls-1" d="M87.87,309.3s9.54-9.23,22.68-7.84"/>
              <path class="cls-1" d="M97.23,309.98s5.67-5.06,15.42-4.1"/>
              <path class="cls-1" d="M51.42,296.42s10.86-8.83,23.35-3.49"/>
              <path class="cls-1" d="M53.67,301.14s10.99-8.62,21.89-4.15"/>
              <path class="cls-1" d="M55.21,306.7s11.45-7.84,22.8-4.1"/>
              <path class="cls-1" d="M58.24,316.34s10.58-9.54,22.36-4.14"/>
            </g>
            <g>
              <path class="cls-1" d="M66.83,61.51c5.77-4.5,9.16-11.64,9.96-18.91.46-4.23.1-8.62-1.64-12.5-1.48-3.3-3.9-6.12-6.7-8.41-8.08-6.6-19.92-8.66-29.37-4.24-6.74,3.15-11.94,9.42-13.79,16.63-1.85,7.21-.31,15.2,4.08,21.21,8.07,11.03,26.34,14.89,37.46,6.22Z"/>
              <path class="cls-1" d="M46.31,37.79c-.5.86-.79,1.89-.59,2.86.1.47.31.91.56,1.32,1.23,1.97,3.7,3.15,5.97,2.67,2.27-.48,4.09-2.72,3.92-5.04-.16-2.15-1.94-3.97-4.01-4.59-2.53-.75-4.61.64-5.85,2.77Z"/>
              <path class="cls-1" d="M60.62,21.31c5.05,2.42,9.06,6.92,10.9,12.21,1.84,5.29,1.47,11.3-.99,16.33"/>
              <path class="cls-1" d="M43.15,64.76c-4.49-.97-8.99-1.93-13.48-2.9-2.19-.47-4.4-.94-6.64-.81-.85.05-1.73.2-2.45.67-1.16.76-1.65,2.19-2.07,3.51-1.16,3.65-1.52,7.3-2.08,11.08-.11.72-.21,1.45-.04,2.16.25,1.01,1.04,1.82,1.95,2.32.91.5,1.94.75,2.95.99,12.39,2.91,24.43,5.82,36.83,8.7,1,.23,2.06.47,3.05.19,1.92-.53,2.84-2.67,3.49-4.56,1.35-3.87,1.99-7.59,2.54-11.65.05-.4.11-.81.01-1.2-.12-.48-.44-.88-.78-1.22-2.09-2.12-5.16-2.9-8.06-3.58-3.66-.86-7.33-1.73-10.99-2.59"/>
              <path class="cls-1" d="M67.19,75.92c3.87.13,7.76-1.65,10.19-4.66.99-1.23,1.74-2.63,2.35-4.09,1.47-3.53,2.1-7.59.73-11.16"/>
              <path class="cls-1" d="M66.33,78.94c1.66.01,3.33.02,4.96-.27,5.06-.89,9.35-4.73,11.34-9.47,1.99-4.73,1.82-10.22.1-15.05"/>
              <path class="cls-1" d="M82.53,49.92c-1.12-1.59-3.44-2.19-5.19-1.35-1.25.6-2.13,1.81-2.53,3.14-.32,1.06-.33,2.28.29,3.2.45.67,1.17,1.1,1.93,1.38,3.8,1.4,8.11-2.64,5.5-6.37Z"/>
              <path class="cls-1" d="M25.95,66.56c.03-.19,0-.39-.05-.57-.09-.38-.25-.76-.53-1.04-.44-.43-1.14-.54-1.71-.31-.57.23-1,.76-1.15,1.36-.05.21-.07.44-.02.65.07.26.24.48.44.65.43.38,1.16.71,1.73.5.51-.18,1.2-.68,1.29-1.24Z"/>
              <path class="cls-1" d="M23.43,78.18c.5-.54.54-1.45.06-2.01-.28-.32-.69-.5-1.11-.59-.2-.04-.42-.06-.62-.01-.2.05-.37.16-.52.29-.43.35-.76.86-.78,1.41-.05,1.47,2.12,1.84,2.98.91Z"/>
              <path class="cls-1" d="M63.48,75.08c.03-.19,0-.39-.05-.57-.09-.38-.25-.76-.53-1.04-.44-.43-1.14-.54-1.71-.31-.57.23-1,.76-1.15,1.36-.05.21-.07.44-.02.65.07.26.24.48.44.65.43.38,1.16.71,1.73.5.51-.18,1.2-.68,1.29-1.24Z"/>
              <path class="cls-1" d="M60.96,86.7c.5-.54.54-1.45.06-2.01-.28-.32-.69-.5-1.11-.59-.2-.04-.42-.06-.62-.01-.2.05-.37.16-.52.29-.43.35-.76.86-.78,1.41-.05,1.47,2.12,1.84,2.98.91Z"/>
              <path class="cls-1" d="M74.55,20.9c3.8,3.16,6.27,7.87,6.72,12.79"/>
              <path class="cls-1" d="M81.19,21.21c2.33,2.11,3.9,5.03,4.37,8.13"/>
              <path class="cls-1" d="M88.53,16.18c3.26,4.98,5.69,10.89,4.8,16.77-.14.89-.26,2.7-.38,3.6"/>
            </g>
            <g>
              <path class="cls-1" d="M162.13,257.22c.86-7.27-1.83-14.69-6.44-20.38-2.68-3.3-6.06-6.13-10.04-7.62-3.39-1.27-7.09-1.53-10.69-1.15-10.37,1.11-20.16,8.08-23.67,17.9-2.5,7.01-1.69,15.11,2.13,21.49,3.82,6.38,10.6,10.91,17.95,12.01,13.51,2.02,29.11-8.26,30.76-22.26Z"/>
              <path class="cls-1" d="M130.84,255.14c.26.96.79,1.89,1.62,2.43.4.26.87.42,1.34.53,2.27.51,4.84-.42,6.09-2.37,1.25-1.96.94-4.83-.83-6.33-1.65-1.4-4.19-1.41-6.08-.37-2.32,1.27-2.79,3.73-2.15,6.11Z"/>
              <path class="cls-1" d="M129.18,233.38c5.27-1.89,11.29-1.58,16.34.83,5.05,2.41,9.07,6.9,10.92,12.18"/>
              <path class="cls-1" d="M147.8,276.34c-3.85,2.52-7.69,5.03-11.54,7.55-1.87,1.22-3.77,2.47-5.24,4.15-.57.64-1.08,1.37-1.24,2.21-.27,1.36.39,2.71,1.04,3.94,1.78,3.39,4.12,6.21,6.42,9.27.43.58.89,1.17,1.51,1.54.89.53,2.03.54,3.02.25,1-.29,1.9-.85,2.78-1.41,10.78-6.76,21.31-13.28,32.08-20.07.87-.55,1.78-1.14,2.28-2.04.97-1.74.09-3.9-.79-5.69-1.81-3.68-4-6.75-6.49-10-.24-.32-.5-.64-.84-.85-.42-.25-.93-.3-1.42-.3-2.98,0-5.69,1.63-8.21,3.22-3.19,2-6.38,4-9.57,6"/>
              <path class="cls-1" d="M172.64,267.1c2.81-2.66,4.28-6.67,3.85-10.52-.18-1.57-.65-3.09-1.26-4.55-1.47-3.52-3.92-6.83-7.42-8.36"/>
              <path class="cls-1" d="M174.18,269.83c1.17-1.17,2.36-2.35,3.3-3.72,2.92-4.22,3.21-9.98,1.24-14.72-1.97-4.74-5.98-8.48-10.63-10.65"/>
              <path class="cls-1" d="M164.93,237.91c-1.92-.32-3.98.9-4.61,2.74-.45,1.31-.21,2.79.46,4,.53.97,1.39,1.84,2.48,2.04.79.15,1.61-.06,2.34-.4,3.67-1.72,3.83-7.63-.67-8.39Z"/>
              <path class="cls-1" d="M136.99,289.84c-.11-.16-.27-.27-.44-.37-.34-.2-.72-.36-1.11-.35-.61,0-1.19.43-1.43,1-.24.57-.16,1.24.16,1.77.11.19.26.36.45.47.23.13.51.17.77.15.57-.04,1.32-.33,1.57-.88.22-.49.36-1.34.03-1.79Z"/>
              <path class="cls-1" d="M143.48,299.8c-.03-.73-.65-1.41-1.38-1.45-.43-.03-.85.14-1.2.38-.17.12-.34.25-.45.43-.1.17-.14.38-.16.58-.05.55.07,1.14.45,1.54,1.01,1.07,2.8-.22,2.74-1.47Z"/>
              <path class="cls-1" d="M169.43,269.14c-.11-.16-.27-.27-.44-.37-.34-.2-.72-.36-1.11-.35-.61,0-1.19.43-1.43,1-.24.57-.16,1.24.16,1.77.11.19.26.36.45.47.23.13.51.17.77.15.57-.04,1.32-.33,1.57-.88.22-.49.36-1.34.03-1.79Z"/>
              <path class="cls-1" d="M175.92,279.1c-.03-.73-.65-1.41-1.38-1.45-.43-.03-.85.14-1.2.38-.17.12-.34.25-.45.43-.1.17-.14.38-.16.58-.05.55.07,1.14.45,1.54,1.01,1.07,2.8-.22,2.74-1.47Z"/>
              <path class="cls-1" d="M138.68,223.18c4.92-.48,10.01,1.07,13.82,4.21"/>
              <path class="cls-1" d="M143.57,218.67c3.13-.17,6.32.77,8.85,2.61"/>
              <path class="cls-1" d="M145.16,209.91c5.83,1.18,11.74,3.61,15.3,8.38.54.72,1.74,2.08,2.29,2.8"/>
            </g>
            <g>
              <path class="cls-1" d="M46.65-32.69s13.49-13.02,30.1-5.82c0,0,11.75-14.61,29.64-11.75l12.44,35.07s-18.13-.11-30.52,11.51c0,0-10.53-7.91-31.13,5.44l-10.53-34.45Z"/>
              <path class="cls-1" d="M57.18,1.76l1.54,3.21s14.13-8.07,29.93-5.74c0,0,20.47-13.5,30.18-10.91v-3.51"/>
              <polyline class="cls-1" points="76.75 -38.51 88.31 -3.68 88.65 -.77 89.64 2.67"/>
              <path class="cls-1" d="M107.19-48s1.68-1.03,4.48-1.05l13,37.66s-25.61,7.19-32.53,13.34l-4.63,1.33s-14.38-2.56-33.57,5.94l-10.98-39.06s1.98-1.6,3.97-1.9"/>
              <path class="cls-1" d="M53.94,9.22l2.8,2.17s16.79-7.36,30.76-5.04l6.9-1.98s8.08-7.15,30.17-12.44l.09-3.33"/>
              <line class="cls-1" x1="87.51" y1="6.35" x2="87.51" y2="3.28"/>
              <line class="cls-1" x1="94.41" y1="4.37" x2="92.14" y2="1.95"/>
              <path class="cls-1" d="M81.48-36.5s10.09-10.8,22.84-9.04"/>
              <path class="cls-1" d="M83.45-32.39s7.56-8.66,22.92-8.89"/>
              <path class="cls-1" d="M85.12-27.21s9.01-9.54,22.99-7.62"/>
              <path class="cls-1" d="M87.87-18.05s9.54-9.23,22.68-7.84"/>
              <path class="cls-1" d="M97.23-17.37s5.67-5.06,15.42-4.1"/>
              <path class="cls-1" d="M51.42-30.93s10.86-8.83,23.35-3.49"/>
              <path class="cls-1" d="M53.67-26.21s10.99-8.62,21.89-4.15"/>
              <path class="cls-1" d="M55.21-20.65s11.45-7.84,22.8-4.1"/>
              <path class="cls-1" d="M58.24-11.01s10.58-9.54,22.36-4.14"/>
            </g>
            <g>
              <path class="cls-1" d="M136.35,11.48c16.17,5.87,12.05,46.14-1.11,46.6-9.83.35-6.11-6.82-12.44-8.68-6.33-1.86-15.47,3.06-22.75-7.02-7.28-10.08,8.44-41.02,36.31-30.9Z"/>
              <path class="cls-1" d="M110.78,40.96c1.72-.49,3.21-1.95,3.51-3.74.1-.57.07-1.17-.1-1.72-.18-.58-.52-1.09-.92-1.54-1.21-1.36-3.07-2.12-4.86-1.85-1.8.27-3.44,1.61-3.97,3.38-1.2,4.04,2.94,6.45,6.34,5.47Z"/>
              <path class="cls-1" d="M109.12,29.76c1.73.11,3.51-.74,4.55-2.17.78-1.08,1.14-2.57.6-3.78-.34-.76-.98-1.33-1.66-1.78-1.41-.93-3.23-1.44-4.8-.78-1.89.8-2.65,3.03-2.64,4.97,0,2.13,1.9,3.41,3.95,3.54Z"/>
              <path class="cls-1" d="M121.06,22.57c1.71-.38,3.12-2,3.17-3.77.02-.98-.34-1.94-.86-2.76-1.63-2.56-6.39-3.58-7.65.01-1.17,3.34,1.89,7.29,5.35,6.52Z"/>
              <path class="cls-1" d="M129.98,22.62c1.26.54,2.77.22,3.95-.51.95-.58,1.78-1.47,2.02-2.57.28-1.27-.26-2.56-.94-3.64-4.02-6.35-11.56,3.94-5.03,6.72Z"/>
              <path class="cls-1" d="M140.14,31.92c1.56-.04,3.07-1.18,3.49-2.71.26-.95.12-1.96-.14-2.9-.24-.86-.6-1.71-1.23-2.32-1.92-1.86-5.38-.68-6.05,1.82-.75,2.8.77,6.2,3.94,6.11Z"/>
              <path class="cls-1" d="M138.12,43.45c1.34.58,3.06.67,4.14-.34.67-.63.98-1.57,1.05-2.49.27-3.54-3.31-6.82-6.64-4.77-3.37,2.07-1.47,6.35,1.45,7.6Z"/>
              <path class="cls-1" d="M133.58,53.05c1,0,1.98-.43,2.78-1.06,1.13-.89,1.95-2.33,1.7-3.74-.19-1.07-.97-1.94-1.81-2.6-.75-.59-1.63-1.09-2.58-1.14-4.96-.3-4.63,8.56-.08,8.55Z"/>
              <path class="cls-1" d="M127.62,42.83c-.07-.94-.77-1.82-1.62-2.44-2.77-2.03-11.03-1.09-7.68,3.06,1.92,2.38,9.59,3.39,9.3-.62Z"/>
              <path class="cls-1" d="M108.04,33.81c-1.43.75-2.12,2.71-1.46,4.18"/>
              <path class="cls-1" d="M108.47,22.2c-1.21.94-1.76,2.69-1.3,4.16"/>
              <path class="cls-1" d="M118.28,15.38c-.74,1.17-.96,2.67-.58,3.99"/>
              <path class="cls-1" d="M131.83,15.6c-1.35.75-2.2,2.36-2.06,3.91"/>
              <path class="cls-1" d="M139.29,25c-.78,1.07-1.1,2.47-.88,3.77"/>
              <path class="cls-1" d="M137.79,37.18c-.78.83-1.12,2.07-.88,3.18"/>
              <path class="cls-1" d="M133.21,46.16c-.97.72-1.45,2.05-1.16,3.22"/>
            </g>
            <g>
              <path class="cls-1" d="M25.83,272.65c16.17,5.87,12.05,46.14-1.11,46.6-9.83.35-6.11-6.82-12.44-8.68-6.33-1.86-15.47,3.06-22.75-7.02-7.28-10.08,8.44-41.02,36.31-30.9Z"/>
              <path class="cls-1" d="M.26,302.13c1.72-.49,3.21-1.95,3.51-3.74.1-.57.07-1.17-.1-1.72-.18-.58-.52-1.1-.92-1.54-1.21-1.36-3.07-2.12-4.86-1.85-1.8.27-3.44,1.61-3.97,3.38-1.2,4.04,2.94,6.45,6.34,5.47Z"/>
              <path class="cls-1" d="M-1.4,290.94c1.73.11,3.51-.74,4.55-2.17.78-1.08,1.14-2.57.6-3.78-.34-.76-.98-1.33-1.66-1.78-1.41-.93-3.23-1.44-4.8-.78-1.89.8-2.65,3.03-2.64,4.97,0,2.13,1.9,3.41,3.95,3.54Z"/>
              <path class="cls-1" d="M10.54,283.74c1.71-.38,3.12-2,3.17-3.77.02-.98-.34-1.94-.86-2.76-1.63-2.57-6.39-3.58-7.65.01-1.17,3.34,1.89,7.29,5.35,6.52Z"/>
              <path class="cls-1" d="M19.46,283.8c1.26.54,2.77.22,3.95-.51.95-.58,1.78-1.47,2.02-2.57.28-1.27-.26-2.56-.94-3.64-4.02-6.35-11.56,3.94-5.03,6.72Z"/>
              <path class="cls-1" d="M29.61,293.09c1.56-.04,3.07-1.18,3.49-2.71.26-.95.12-1.96-.14-2.9-.24-.86-.6-1.71-1.23-2.32-1.92-1.86-5.38-.68-6.05,1.82-.75,2.8.77,6.2,3.94,6.11Z"/>
              <path class="cls-1" d="M27.6,304.63c1.34.58,3.06.67,4.14-.34.67-.63.98-1.57,1.05-2.49.27-3.54-3.31-6.82-6.64-4.77-3.37,2.07-1.47,6.35,1.45,7.6Z"/>
              <path class="cls-1" d="M23.06,314.23c1,0,1.98-.43,2.78-1.06,1.13-.89,1.95-2.33,1.7-3.74-.19-1.07-.97-1.94-1.81-2.6-.75-.59-1.63-1.09-2.58-1.14-4.96-.3-4.63,8.56-.08,8.55Z"/>
              <path class="cls-1" d="M17.1,304.01c-.07-.94-.77-1.82-1.62-2.44-2.77-2.03-11.03-1.09-7.68,3.06,1.92,2.38,9.59,3.39,9.3-.62Z"/>
              <path class="cls-1" d="M-2.48,294.99c-1.43.75-2.12,2.71-1.46,4.18"/>
              <path class="cls-1" d="M-2.06,283.38c-1.21.94-1.76,2.69-1.3,4.16"/>
              <path class="cls-1" d="M7.75,276.56c-.74,1.17-.96,2.67-.58,3.99"/>
              <path class="cls-1" d="M21.31,276.77c-1.35.75-2.2,2.36-2.06,3.91"/>
              <path class="cls-1" d="M28.77,286.18c-.78,1.07-1.1,2.47-.88,3.77"/>
              <path class="cls-1" d="M27.27,298.36c-.78.83-1.12,2.07-.88,3.18"/>
              <path class="cls-1" d="M22.69,307.34c-.97.72-1.45,2.05-1.16,3.22"/>
            </g>
            <path class="cls-3" d="M213.49,23.17c.61-1.62.75-3.34.43-5.17-.32-1.83-1.09-3.5-2.3-5.01-1.21-1.51-2.75-2.62-4.62-3.33-1.68-.64-3.43-.83-5.23-.57-1.8.26-3.42.91-4.86,1.97-1.44,1.06-2.47,2.4-3.09,4.04-.57,1.5-.8,3.04-.68,4.6.11,1.56.57,3.04,1.39,4.43.82,1.39,1.98,2.55,3.5,3.49-1.13.51-2.24.91-3.32,1.2-1.09.29-2.04.46-2.87.52l2.95,6.66c3.46-.49,6.5-1.43,9.1-2.85,2.6-1.41,4.69-3,6.27-4.77,1.58-1.77,2.69-3.51,3.34-5.22ZM204.58,16.68c.8.3,1.37.8,1.72,1.49.35.69.39,1.39.12,2.1h-.03s-.19.5-.19.5c-.34.55-.82.92-1.46,1.13-.64.2-1.31.17-2.01-.1-.87-.33-1.46-.83-1.77-1.51-.32-.68-.33-1.41-.04-2.18.26-.68.73-1.17,1.41-1.46.68-.29,1.43-.28,2.25.03Z"/>
            <g>
              <path class="cls-1" d="M221.42,272.65c16.17,5.87,12.05,46.14-1.11,46.6-9.83.35-6.11-6.82-12.44-8.68-6.33-1.86-15.47,3.06-22.75-7.02s8.44-41.02,36.31-30.9Z"/>
              <path class="cls-1" d="M195.84,302.13c1.72-.49,3.21-1.95,3.51-3.74.1-.57.07-1.17-.1-1.72-.18-.58-.52-1.1-.92-1.54-1.21-1.36-3.07-2.12-4.86-1.85-1.8.27-3.44,1.61-3.97,3.38-1.2,4.04,2.94,6.45,6.34,5.47Z"/>
              <path class="cls-1" d="M194.19,290.94c1.73.11,3.51-.74,4.55-2.17.78-1.08,1.14-2.57.6-3.78-.34-.76-.98-1.33-1.66-1.78-1.41-.93-3.23-1.44-4.8-.78-1.89.8-2.65,3.03-2.64,4.97,0,2.13,1.9,3.41,3.95,3.54Z"/>
              <path class="cls-1" d="M206.13,283.74c1.71-.38,3.12-2,3.17-3.77.02-.98-.34-1.94-.86-2.76-1.63-2.57-6.39-3.58-7.65.01-1.17,3.34,1.89,7.29,5.35,6.52Z"/>
              <path class="cls-1" d="M215.05,283.8c1.26.54,2.77.22,3.95-.51.95-.58,1.78-1.47,2.02-2.57.28-1.27-.26-2.56-.94-3.64-4.02-6.35-11.56,3.94-5.03,6.72Z"/>
              <path class="cls-1" d="M225.2,293.09c1.56-.04,3.07-1.18,3.49-2.71.26-.95.12-1.96-.14-2.9-.24-.86-.6-1.71-1.23-2.32-1.92-1.86-5.38-.68-6.05,1.82-.75,2.8.77,6.2,3.94,6.11Z"/>
              <path class="cls-1" d="M223.18,304.63c1.34.58,3.06.67,4.14-.34.67-.63.98-1.57,1.05-2.49.27-3.54-3.31-6.82-6.64-4.77-3.37,2.07-1.47,6.35,1.45,7.6Z"/>
              <path class="cls-1" d="M218.65,314.23c1,0,1.98-.43,2.78-1.06,1.13-.89,1.95-2.33,1.7-3.74-.19-1.07-.97-1.94-1.81-2.6-.75-.59-1.63-1.09-2.58-1.14-4.96-.3-4.63,8.56-.08,8.55Z"/>
              <path class="cls-1" d="M212.69,304.01c-.07-.94-.77-1.82-1.62-2.44-2.77-2.03-11.03-1.09-7.68,3.06,1.92,2.38,9.59,3.39,9.3-.62Z"/>
              <path class="cls-1" d="M193.1,294.99c-1.43.75-2.12,2.71-1.46,4.18"/>
              <path class="cls-1" d="M193.53,283.38c-1.21.94-1.76,2.69-1.3,4.16"/>
              <path class="cls-1" d="M203.34,276.56c-.74,1.17-.96,2.67-.58,3.99"/>
              <path class="cls-1" d="M216.9,276.77c-1.35.75-2.2,2.36-2.06,3.91"/>
              <path class="cls-1" d="M224.36,286.18c-.78,1.07-1.1,2.47-.88,3.77"/>
              <path class="cls-1" d="M222.86,298.36c-.78.83-1.12,2.07-.88,3.18"/>
              <path class="cls-1" d="M218.28,307.34c-.97.72-1.45,2.05-1.16,3.22"/>
            </g>
            <path class="cls-1" d="M139.83,151.17c-3.04,4.86-5.97,9.79-8.8,14.77"/>
            <path class="cls-1" d="M142.37,156.05c-1.73,4.27-4.14,8.27-7.11,11.79"/>
            <path class="cls-1" d="M174.6,188.55c4.38,5.14,8.58,10.42,12.59,15.85"/>
            <path class="cls-1" d="M179.52,186.34c2.42,3.82,5.12,7.46,8.07,10.88"/>
            <path class="cls-1" d="M56.23,220.67c1.48,4.99,2.41,10.15,2.75,15.34"/>
            <path class="cls-1" d="M51.77,220.66c.43,5.33,1.31,10.63,2.62,15.82"/>
            <path class="cls-1" d="M44.04,128.11c1.66,4.88,3.12,9.82,4.36,14.82"/>
            <path class="cls-1" d="M40.35,128.13c1.23,5.11,2.46,10.22,3.69,15.33"/>
            <path class="cls-1" d="M150.15,35.55c.6,6.53-.86,13.24-4.1,18.94"/>
            <path class="cls-1" d="M154.13,38.27c.89,5.81.02,11.88-2.48,17.21"/>
            <path class="cls-1" d="M174.27,6.98c3.06,4.7,5.56,9.76,7.43,15.04"/>
            <path class="cls-1" d="M178.92,5.82c2.06,4.03,4.34,7.94,6.84,11.71"/>
            <path class="cls-1" d="M147.55,311.88c6.07-4.35,12.14-8.7,18.22-13.05"/>
            <path class="cls-1" d="M152.38,316.35c6.01-4.29,12.02-8.59,18.03-12.88"/>
            <path class="cls-1" d="M184.06,258.26c.97,3.81,1.94,7.62,2.91,11.43"/>
            <path class="cls-1" d="M189.54,251.79c.24,4.23.48,8.46.72,12.69"/>
            <path class="cls-1" d="M5.58,205.44c1.55,4.79,3.1,9.58,4.66,14.37"/>
            <path class="cls-1" d="M10.37,201.16c1.54,4.23,3.07,8.47,4.61,12.7"/>
            <path class="cls-1" d="M11.08,139.94c5.15-1.91,10.12-4.32,14.81-7.18"/>
            <path class="cls-1" d="M14.48,142.92c4.09-1.83,8.18-3.65,12.27-5.48"/>
            <path class="cls-1" d="M98.52,190.92c2.24,3.59,4.47,7.17,6.71,10.76"/>
            <path class="cls-1" d="M96.17,199.82c3.14-2.84,6.27-5.67,9.41-8.51"/>
            <path class="cls-1" d="M117.82,175.39c3.34,1.3,6.53,2.97,9.5,4.99"/>
            <path class="cls-1" d="M123.17,171.95c-.27,3.99-.91,7.95-1.91,11.81"/>
            <path class="cls-1" d="M91.35,254.52c2.53,3.95,5.06,7.91,7.59,11.86.11.17.22.4.09.56-.13.16-.43-.14-.24-.2"/>
            <path class="cls-1" d="M89.34,265.38c3.41-3.32,6.82-6.64,10.23-9.96"/>
            <path class="cls-1" d="M174.98,310.61c2.5,4.09,5.01,8.17,7.51,12.26"/>
            <path class="cls-1" d="M172.75,320.61c3.42-2.93,6.84-5.86,10.26-8.79"/>
            <path class="cls-1" d="M181.42,239.74c2.93-3.65,6.03-7.17,9.28-10.55"/>
            <path class="cls-1" d="M183.05,229.79c2.65,3.12,5.04,6.47,7.12,10"/>
            <path class="cls-1" d="M50.04,274.82c-1.79,4.09-3.32,8.29-4.56,12.57"/>
            <path class="cls-1" d="M43.2,276.27l9.89,7.65"/>
            <path class="cls-1" d="M72.91,91.89c4.08,3.54,8.16,7.08,12.23,10.62"/>
            <path class="cls-1" d="M82.07,90.07c-2.79,5.08-5.59,10.16-8.38,15.24"/>
            <path class="cls-1" d="M92.33,59.42c5.49,1.36,11.09,2.32,16.72,2.85"/>
            <path class="cls-1" d="M100.45,53.1c-.7,5.49-1.72,10.94-3.04,16.31"/>
            <path class="cls-1" d="M181.05,83.58c3.2,3.15,6.25,6.47,9.12,9.93"/>
            <path class="cls-1" d="M187.49,82.01c-1.82,3.92-3.65,7.83-5.47,11.75"/>
            <path class="cls-1" d="M181.97,125.6c7.15,7.14,13.61,14.98,19.25,23.37"/>
            <path class="cls-1" d="M199.15,120.92c-3.9,10.08-7.8,20.17-11.7,30.25"/>
            <path class="cls-1" d="M-13.56,125.6c7.15,7.14,13.61,14.98,19.25,23.37"/>
            <path class="cls-1" d="M3.63,120.92c-3.9,10.08-7.8,20.17-11.7,30.25"/>
            <path class="cls-1" d="M4.27,47.41c4.54,2.71,8.89,5.75,12.99,9.09"/>
            <path class="cls-1" d="M11.12,44.69c-1.44,6.21-2.87,12.43-4.31,18.64"/>
            <path class="cls-1" d="M23.8,6.05c4.96,2.28,9.78,4.88,14.41,7.78"/>
            <path class="cls-1" d="M33.7,4.74c-2.39,4.52-4.79,9.03-7.18,13.55"/>
            <path class="cls-1" d="M140.96-.62c8.7.74,17.43,1.17,26.16,1.28"/>
            <path class="cls-1" d="M149.94,13.41c.59-6.98,1.54-13.92,2.85-20.8"/>
            <path class="cls-1" d="M140.96,326.72c8.7.74,17.43,1.17,26.16,1.28"/>
            <path class="cls-1" d="M149.94,340.74c.59-6.98,1.54-13.92,2.85-20.8"/>
            <path class="cls-1" d="M86.42,150.76c4.94,1.18,9.87,2.36,14.81,3.55"/>
            <path class="cls-1" d="M89.25,157.81c2.82-3.97,5.63-7.93,8.45-11.9"/>
            <path class="cls-1" d="M82.4,194.01c2.06,2.52,3.88,5.23,5.42,8.1"/>
            <path class="cls-1" d="M81.55,202.42c1.93-3.61,4.11-7.1,6.5-10.42"/>
            <path class="cls-1" d="M180.43,178.55c3.66.63,7.24,1.67,10.67,3.09"/>
            <path class="cls-1" d="M185.16,175.12v9.5"/>
            <path class="cls-1" d="M132.38,308.68c1.39,3.96,2.77,7.92,4.16,11.87"/>
            <path class="cls-1" d="M128.81,317.67c3.3-3.17,7.07-5.85,11.15-7.93"/>
            <path class="cls-1" d="M35.11,315.63l9.36,7.3"/>
            <path class="cls-1" d="M36.09,323.52c1.96-3.77,3.91-7.54,5.87-11.32"/>
            <path class="cls-1" d="M152.42,111.68c3.6,3.72,7.2,7.45,10.8,11.17"/>
            <path class="cls-1" d="M153.52,122.19c1.99-3.55,3.99-7.11,5.98-10.66"/>
            <path class="cls-1" d="M1.77,230.87c2.83,2.74,5.38,5.76,7.61,9"/>
            <path class="cls-1" d="M2.08,240.88c2.64-4.11,5.27-8.23,7.91-12.34"/>
          </g>
        </g>
      </g>
    </pattern>
  </defs>
  <g id="Layer_2-2" data-name="Layer 2">
    <rect class="cls-6" width="781.91" height="654.77"/>
  </g>
</svg>