<?xml version="1.0" encoding="UTF-8"?>
<svg id="Layer_2" data-name="Layer 2" xmlns="http://www.w3.org/2000/svg" viewBox="0 0 790.23 909.02">
  <defs>
    <style>
      .cls-1 {
        fill: #f6cb13;
      }

      .cls-2 {
        fill: #3c5e08;
      }

      .cls-3 {
        fill: #ddce31;
      }

      .cls-4 {
        fill: #fcfdfa;
      }

      .cls-5 {
        fill: #f20401;
      }

      .cls-6 {
        fill: #075d2c;
      }

      .cls-7 {
        fill: #040502;
      }

      .cls-8 {
        fill: #4a7613;
      }

      .cls-9 {
        fill: #f6fa57;
      }

      .cls-10 {
        fill: #0e0e01;
      }

      .cls-11 {
        fill: #ecf84e;
      }

      .cls-12 {
        fill: #f6f143;
      }

      .cls-13 {
        fill: #fcfefa;
      }

      .cls-14 {
        fill: #f6fb44;
      }

      .cls-15 {
        fill: #840b02;
      }

      .cls-16 {
        fill: #050701;
      }

      .cls-17 {
        fill: #f80101;
      }

      .cls-18 {
        fill: #b5d860;
      }

      .cls-19 {
        fill: #e6f937;
      }

      .cls-20 {
        fill: #f4fa5d;
      }

      .cls-21 {
        fill: #020401;
      }

      .cls-22 {
        fill: #021503;
      }

      .cls-23 {
        fill: #e8f81c;
      }

      .cls-24 {
        fill: #abd54a;
      }

      .cls-25 {
        fill: #030501;
      }

      .cls-26 {
        fill: #edf544;
      }

      .cls-27 {
        fill: #052f0b;
      }

      .cls-28 {
        fill: #eefa41;
      }

      .cls-29 {
        fill: #b00e02;
      }

      .cls-30 {
        fill: #fbfef9;
      }

      .cls-31 {
        fill: #f2fc40;
      }

      .cls-32 {
        fill: #e0f063;
      }

      .cls-33 {
        fill: #eaf81d;
      }

      .cls-34 {
        fill: #011403;
      }

      .cls-35 {
        fill: #d5ea53;
      }

      .cls-36 {
        fill: #e7f81c;
      }

      .cls-37 {
        fill: #f9fb42;
      }

      .cls-38 {
        fill: #031002;
      }

      .cls-39 {
        fill: #f5fa51;
      }

      .cls-40 {
        fill: #040a02;
      }

      .cls-41 {
        fill: #f5fc37;
      }

      .cls-42 {
        fill: #496b21;
      }

      .cls-43 {
        fill: #f6fc3d;
      }

      .cls-44 {
        fill: #e7f71a;
      }

      .cls-45 {
        fill: #f50101;
      }

      .cls-46 {
        fill: #4b8619;
      }

      .cls-47 {
        fill: #040601;
      }

      .cls-48 {
        fill: #e7f91e;
      }

      .cls-49 {
        fill: #749137;
      }

      .cls-50 {
        fill: #9cc86b;
      }

      .cls-51 {
        fill: #3b6812;
      }

      .cls-52 {
        fill: #fdfef9;
      }

      .cls-53 {
        fill: #030401;
      }

      .cls-54 {
        fill: #011603;
      }

      .cls-55 {
        fill: #8eb54d;
      }

      .cls-56 {
        fill: #070601;
      }

      .cls-57 {
        fill: #699016;
      }

      .cls-58 {
        fill: #040702;
      }

      .cls-59 {
        fill: #020301;
      }

      .cls-60 {
        fill: #def56b;
      }

      .cls-61 {
        fill: #fefefd;
      }

      .cls-62 {
        fill: #fdfefb;
      }

      .cls-63 {
        fill: #9ac768;
      }

      .cls-64 {
        fill: #cae67a;
      }

      .cls-65 {
        fill: #99c767;
      }

      .cls-66 {
        fill: #99bb50;
      }

      .cls-67 {
        fill: #095e2e;
      }

      .cls-68 {
        fill: #d7e250;
      }

      .cls-69 {
        fill: #e9f81f;
      }

      .cls-70 {
        fill: #040701;
      }

      .cls-71 {
        fill: #432c07;
      }

      .cls-72 {
        fill: #fdfdfc;
      }

      .cls-73 {
        fill: #f0fb34;
      }

      .cls-74 {
        fill: #4b7711;
      }

      .cls-75 {
        fill: #fefef8;
      }

      .cls-76 {
        fill: #b7da5b;
      }

      .cls-77 {
        fill: #9eb83a;
      }

      .cls-78 {
        fill: #e8f730;
      }

      .cls-79 {
        fill: #fbfdf8;
      }

      .cls-80 {
        fill: #e7f84f;
      }

      .cls-81 {
        fill: #f0fb3a;
      }

      .cls-82 {
        fill: #f30202;
      }

      .cls-83 {
        fill: #fdfefa;
      }

      .cls-84 {
        fill: #050601;
      }

      .cls-85 {
        fill: #113002;
      }

      .cls-86 {
        fill: #e7fe01;
      }

      .cls-87 {
        fill: #fdfdf9;
      }

      .cls-88 {
        fill: #ebf954;
      }

      .cls-89 {
        fill: #7e0e03;
      }

      .cls-90 {
        fill: #030601;
      }

      .cls-91 {
        fill: #fdfefc;
      }

      .cls-92 {
        fill: #ef0200;
      }

      .cls-93 {
        fill: #4c7512;
      }

      .cls-94 {
        fill: #98ba52;
      }

      .cls-95 {
        fill: #f4f115;
      }

      .cls-96 {
        fill: #040b02;
      }

      .cls-97 {
        fill: #065f30;
      }

      .cls-98 {
        fill: #fbfdf7;
      }

      .cls-99 {
        fill: #476c1f;
      }

      .cls-100 {
        fill: #042f0b;
      }

      .cls-101 {
        fill: #fbfdf5;
      }

      .cls-102 {
        fill: #011903;
      }

      .cls-103 {
        fill: #decd2b;
      }

      .cls-104 {
        fill: #ecda3d;
      }

      .cls-105 {
        fill: #9ac869;
      }

      .cls-106 {
        fill: #fcfdf4;
      }

      .cls-107 {
        fill: #457012;
      }

      .cls-108 {
        fill: #8f1603;
      }

      .cls-109 {
        fill: #99c86c;
      }

      .cls-110 {
        fill: #0e0902;
      }

      .cls-111 {
        fill: #d2be33;
      }

      .cls-112 {
        fill: #44690f;
      }

      .cls-113 {
        fill: #075c2c;
      }

      .cls-114 {
        fill: #8d0902;
      }

      .cls-115 {
        fill: #e5f434;
      }
    </style>
  </defs>
  <g id="Layer_1-2" data-name="Layer 1">
    <g>
      <path class="cls-53" d="M397.61,1.09c35.63,38.88,72.16,78.66,119.21,104.06,5.69,3.07,18.37,10.07,24.24,10.74,12.07,1.37,19-7.8,23.3-17.52.27-.62-.21-2.13,1.57-1.38.77.33,6.49,6.32,7.48,7.51,6.22,7.55,10.07,16.49,9.03,26.44,11.36-8.56,25.11-6.16,37.95-2.99-3.96,9.06-10.72,17.33-6.18,27.65s35.74,26.76,46.78,32.14c40.74,19.85,85.21,29.36,129.23,39.11-13.15,43.53-28.87,87.32-31.02,133.3-.49,10.48-1.24,44.22,2.85,52.19,4.85,9.46,18.7,11.33,28.17,10.29-1.68,12.29-8.05,25.87-19.98,30.98,10.9,7.6,18.1,18.61,19.97,31.95-8.62-.38-16.11-.14-22.98,5.49-7.51,6.14-7.52,12.69-8.03,21.94-1.97,35.9,3.05,73.1,12.32,107.65,2.06,7.67,19.27,58.87,17.57,61.59-39.27,10.51-78.93,17.41-116.43,33.92-12.16,5.35-52.99,25.84-58.47,36.44-4.96,9.59.34,20.87,6.19,28.66-12.83,3.89-25.93,4.86-37.95-1.99.51,9.19-3.41,18.38-9.03,25.45-.89,1.12-6.8,7.22-7.48,7.51-1.67.69-1.35-.66-1.7-1.27-4.37-7.4-8.11-16.15-18.33-17.65-8.03-1.18-23.74,7.7-31.07,11.76-42.54,23.58-69.88,53.79-102.71,88.09-3.47,3.62-11.47,12.7-14.98,15.05-.89.6-1.38,1.15-2.55.54-28.6-29.9-55.69-61.14-89.57-85.35-10.72-7.66-43.06-28.73-54.85-30.07-11.89-1.35-19.63,9.91-24.88,18.88-9.51-8.09-17.71-19.87-16.5-32.94-7.5,5.62-29.51,7.05-36.96,2.5-1.64-1-.52-1.21-.18-2.17.94-2.62,3.22-4.95,4.38-7.63,2.74-6.36,4.38-12.85,1.01-19.37-5.81-11.24-50.47-32.94-63.46-38.44-35.39-14.98-74.04-23.08-111.56-30.8,3.31-22.26,12.49-43.47,18.11-65.29,7.62-29.62,17.73-90.22,9.8-118.94-3.36-12.17-18.04-14.3-28.91-13.55.89-13.13,9.26-24.73,19.98-31.95-12.39-5.23-17.66-18.9-20.98-30.98h14.49c4.96,0,13.58-7.73,15.2-12.77,1.46-4.56,2.06-13.61,2.32-18.66,2.84-55.81-13.48-108.73-29.85-161.13l.73-2.82c40.49-10.73,81.17-18.69,119.67-36.2,13.15-5.98,38.54-18.68,48.75-28.17,12.24-11.38,5.59-22.44-.47-34.93,9.9-2.55,19.73-4.63,29.79-1.32,2.67.88,4.39,3.18,7.18,3.3.02-13.1,7.25-25.32,17.5-32.95,13.45,30.13,32.84,17.43,54.11,5.16,9.73-5.62,19.13-12.12,28.19-18.76,32.78-24,58.4-52.89,86.02-82.3.98-1.45,3.03-1.46,4,0Z"/>
      <path class="cls-86" d="M568.43,154.93c-1.12,14.53,10.36,28.12,25.53,26.01,3.84-.53,4.91-3.45,8.36-3.96,5.43,6.79,13.95,13.08,21.34,18.13,41.88,28.62,85.44,37.91,134.06,47.76,1.08.22,2.1.33,2.47,1.59.54,1.84-10.89,31.18-12.42,36.34-10.16,34.28-15.89,71.48-13.48,107.37.41,6.13,4.66,21.7,4.04,25.96-.42,2.9-3.63,2.78-5.57,4.5-10.52,9.37-5.55,31.4,8.51,34.99-9.73,6.84-15.98,13.43-13.92,26.4,1.28,8.06,10.82,12.36,10.99,13.23.46,2.38-3.64,20.99-4.05,25.8-3.02,35.3,3.6,74.35,13.48,108.37,3.81,13.11,9.34,25.82,12.49,38.96-10.12.15-20.14,2.35-29.98,4.49-38.18,8.29-81.53,24.65-113.19,47.65-2.79,2.03-15.27,13.44-16.31,13.64-1.62.31-6.48-3.58-9.85-3.88-13.69-1.22-25.2,13.87-22.49,27.02-12.03-11.46-31.98-5.25-35.72,10.72-.4,1.69.09,5.68-.33,6.17-.3.36-7.31,1.66-9.16,2.33-50.81,18.36-94.18,61.02-128.12,101.63-3.76-4.56-7.13-9.48-10.97-13.98-28.58-33.47-67.27-66.12-107.74-84.07-2.98-1.32-16.91-5.66-17.67-6.3-1.71-1.45.3-11.77-8.04-17.93-9.16-6.77-18.76-5.42-27.9.43,2.41-17.49-16.58-33.36-32.3-22.13-44.09-38.19-102-58.71-159.53-65.78-1.17-1.15,8.09-25.38,9.26-29.2,13.95-45.67,23.21-95.72,11.93-143,2.52-3.43,6-3.4,8.62-7.27,7.62-11.28,1.39-28.69-11.82-32.32,1.32-1.98,4.35-2.31,6.48-3.99,11.8-9.27,12.24-28.35-2.53-34.62.32-10.37,3.48-20.43,4.08-30.76,2.1-36.11-5.08-76.79-15.76-111.19-1.38-4.45-11.26-28.35-9.84-30.26,56.38-9.79,115.48-27,158.07-66.77,15.54,11.49,35.68-4.18,32.34-22.08,10.58,8.07,26.84,6.24,33.81-5.64,2.07-3.54,1.85-10.77,3.13-11.86.7-.6,12.22-3.85,14.97-5.01,48-20.25,89.23-59.24,121.43-99.36,1.47-.4,1.63.99,2.31,1.66,6.08,6.06,12.02,15.21,18.13,21.83,24.8,26.92,58.98,56.05,92.26,71.57,4.28,1.99,23.27,8.13,24.67,9.3s.74,7.05,2.43,10.56c5.86,12.22,23.27,15.99,33.51,6.94Z"/>
      <path class="cls-36" d="M613.4,130.97c-14.54,25.74,2.81,36.85,22.68,48.74,44.98,26.94,96.27,39.47,147.17,50.15-8.38,34.22-21.01,67.33-25.84,102.52-2.52,18.34-6.76,65.65.36,81.27,4.96,10.87,15.57,13.13,26.47,14-4.72,19.7-21.64,29.32-40.94,21.45-2.67-1.09-5.47-2.32-7.45-4.53-10.32-11.55,2.24-32.89,12.98-20.97,3.77,4.18,3.28,12.48-2.24,13.92-2.51.66-2.92-1.52-4.26-2.43-7.5-5.11-4.01,6.02,2.44,6.62,13.27,1.24,15.25-18.4,4.89-23.94-5.24-2.8-4.61,1.41-6.7-6.29-11.28-41.59-.62-96.89,12.05-137.45,1.38-4.41,12.52-32.9,11.26-34.19-32.31-4.56-63.76-11.96-93.88-24.51-20.92-8.72-49.63-23.21-65.51-39.38-6.04-6.15.54-10.07-5.93-18.05-10.33-12.71-28.73.17-16.02,10.01,3.5-2.7-1.6-5.95,1.96-9.04,10.79-9.34,21.12,19.13,1.03,17.06-13.51-1.39-16.56-16.26-12.34-27.36,6.04-15.89,21.81-22.6,37.83-17.6Z"/>
      <path class="cls-44" d="M41.2,472.84c4.48-4.49,8.48,3.12,10.24,2.75,3.92-.84.32-7.34-3.43-8.54-12.51-4-18.55,15.16-6.56,23.54,5.45,3.81,4.7-.64,7.02,7.97,9.83,36.5,1.18,89.56-9.24,125.64-4.4,15.26-10.84,29.93-15.25,45.18,50.28,7.33,102.3,21.64,144.18,51.14,3.75,2.64,19.26,13.7,19.7,17.35.22,1.85-.92,3.68-.8,5.69.57,9.44,13.17,18.11,21.27,10.77,4.4-3.98,3.44-13.22-3.52-13.01-1.65,1.71,5.01,10.11-3.76,10.79-13.47,1.05-12.5-26.28,7.43-16.96,15.42,7.21,9.63,29.09-1.2,38.11-8.51,7.09-17.92,7.11-28.45,5.01,11.96-26.8-1.91-34.93-22.06-47.36-45.4-27.99-97.89-41.22-149.77-51.54,9.95-35.03,22.05-69.19,26.84-105.52,2.44-18.51,6.68-62.88-.68-78.95-3.04-6.65-9.34-10.94-16.31-12.67-3.11-.77-9.76.35-9.82-3.07-.09-4.92,7.07-14.11,10.94-17.08,14.25-10.92,44.4-5.1,40.74,16.77-1.18,7.06-5.96,10.12-13.03,8.51-5.8-1.32-7.78-11.2-4.47-14.52Z"/>
      <path class="cls-48" d="M594.92,779.26c-16.97-2.65-31.32-33.34-13.42-43.39,15.77-8.85,23.43,8.38,12.62,14.61-8.84,5.1-9.85-1.81-7.7-9.18-7.29-.14-7.94,9.72-2.97,13.45s11.87,1.95,16.01-1.92c6.55-6.13,2.32-13.62,3.86-16.05,1.42-2.24,9.99-9.36,12.61-11.44,16.99-13.51,41.24-25.44,61.45-33.46,28.58-11.33,58.54-17.52,88.8-22.6,1.32-1.91-12.49-38.22-14.17-44.1-9.25-32.4-20.96-97.89-8.7-129.1,2.07-5.27,11.19-5.59,12.73-15.25.76-4.78-1.18-11.49-6.01-13.48-9.42-3.87-14.79,7.24-10.22,8.22.83.18,11.41-10.53,11.55,2.5.14,13.08-19.58,13.04-19.97-2.09s20.64-22.07,33.42-18.43c7.84,2.23,18.54,13.34,19.4,21.57.23,2.22-.21,1.08-1.44,1.47-4.07,1.28-8.01.84-12.5,2.49-12.97,4.77-15.33,18.64-16.05,30.9-2.13,36.68,4.13,75.17,13.54,110.43,1.85,6.94,16.92,52.43,15.37,54.83-48.38,10.68-98.16,21.99-141.42,46.89-17.14,9.87-39.65,20.55-32.58,43.9.85,2.79,5.72,9.21.78,9.21-4.4,0-10.99.62-14.99,0Z"/>
      <path class="cls-23" d="M204.81,167.91c6.33-.05,7.3-6.94,4.01-11.5-6.5-9-20.49-1.39-21.91,8.1-.34,2.28.28,4.78-.1,6.89-1.3,7.06-31.65,26.06-38.92,30.01-37.97,20.62-80.23,32.11-122.86,38.48,2.73,13.19,8.76,25.7,12.65,38.71,9.87,32.99,17.96,78.33,14.26,112.57-.41,3.84-3.55,22.67-5.46,24.51-2.63,2.53-5.56-.28-9.31,6.68-2.49,4.63-3.65,9.43-.66,14.23,6.3,10.09,18.92,2.78,15.94-1.96s-6.76,7.74-11.93-.05c-7.27-10.95,15.1-22.27,18.19-5.21,3.83,21.19-23.83,27.15-38.67,18.69-7.18-4.1-11.35-12.5-13.05-20.41,11.66.03,23.19-4.55,27.19-16.27,5.38-15.78,2.67-52.72.65-70.02-4.52-38.84-18.56-70-26.39-106.46-.35-1.64-.79-3.28-.37-4.97,49.65-10.56,98.17-22.29,142.45-47.85,8.49-4.9,25.87-14.47,29.85-23.1,4.82-10.45,1.57-17.84-1.53-27.99,21.05-7.67,40.94,10.82,37.85,32.35-1.5,10.48-19.99,18.03-24.13,8.33-6.04-14.14,17.21-21.69,12.24-3.75Z"/>
      <path class="cls-69" d="M242.76,763.27c2.18-2.32-6.23-4.55-9.95-1.44-9.31,7.79,4.45,23.93,16.69,18.69,1.97-.84,3.36-3.66,4.97-4.1,4.05-1.09,21.93,6.8,26.61,8.99,45.41,21.17,82.97,59.37,114.1,97.72l25.89-29.95c25.08-25.08,54.5-51.58,86.76-67.09,5.64-2.71,22.12-9.89,27.59-10.39,2.01-.18,3.46,3.04,5.13,3.99,10.49,5.96,26-6.03,18.92-15.92-4.62-6.45-14.64-2.95-9.33.6,2.48,1.66,7.26.59,6.17,6.17-2.12,10.78-25.87,5.36-16.28-9.21,8.97-13.64,26.12-5.71,32.95,5.92,8.16,13.88,3.98,26.66-6.03,37.99-7.56-13.04-18.56-20.12-33.74-14.75-35.8,12.66-79.12,51.18-105.65,78.17-4.09,4.16-29.99,33.51-32.44,33.53l-2.52-1.52c-34.54-39.49-72.32-77.73-119.19-102.58-5.47-2.9-16.53-9.09-22.24-9.74-11.11-1.26-22.19,7.45-26.88,16.9-14.27-14.5-14.56-35.99,3.16-47.78,11.8-7.85,30.05,1.33,24.78,13.8-5.46,12.93-30.12-1.99-9.47-7.99Z"/>
      <path class="cls-33" d="M568.43,104.99c6.32,8.82,10.51,15.91,8.92,27.38-2.01,14.5-21.7,31.16-34.91,18.1-13.97-13.81,10.13-22.98,13.58-12.58,2.45,7.38-2.75,5.3-5.91,7.05-4.4,2.43,6.33,7.97,10.21.37,5.59-10.92-8.17-20.62-18.11-16.11-2.06.93-5,4.68-7.05,4.56-56.36-18.53-101.17-60.82-137.54-106.19l-2.36-1.43c-37.89,45.4-82.24,89.54-140.19,107.65-2.42.24-5.88-8.16-16.12-5.16-12.33,3.61-12.38,21.49-.66,20.38,10.06-.95-3.9-5.83-4.39-7.77-1.69-6.73,13.06-11.94,17.74-3.69,6.66,11.73-13.05,22.76-25.79,13.81-16.09-11.3-16.6-33.12-2.56-46.37,15.89,22.18,28.6,17.46,49.47,6.5,48.31-25.38,86.38-65.35,122.43-105.38l16.93,16.93c28.24,32.53,61.07,62.71,98.72,84.1,14.93,8.48,31.39,20.43,47.56,8.25,3.99-3.01,4.94-6.66,7.62-9.37.83-.83.92-1.41,2.42-1.05Z"/>
      <path class="cls-1" d="M298.71,670.38l-.9,3.07c-12.18,9.68-31.15,22.39-46.69,15.47-4.3-1.91-14.02-6.51-8.46-10.66-6.29.82-12.84-1.11-18.2-4.41-11.55-7.11-11.61-9.6,1.4-12.32,8.57-4.28,18.21-7.99,26.92-8.74l-4.11-2.45-11.69,6.11c-12.1,4.84-18.52,6.66-30.79,1.15-4.69-2.1-18.75-11.47-11.4-15.35-4.25-.93-23.18-13.3-19.94-17.59,11.72-1.73,23.49-3.37,35.29-4.93,5.23,2.13,4.61-.1-1.84-6.68-6.93,1.14-13.81,2.64-20.65,4.48-9.88,1.5-18.22-3.03-24.92-9.99-4.09-4.24-10.68-11.91-.78-12.14-4.9-1.27-8.48-3.93-12.02-7.44-8.06-8.02-16.19-20.18,1.67-15.7-7.62-1.64-13.63-7.05-17.85-13.4-4.81-7.24-9.61-16.93,3.3-13.06-5.44-2.69-9.96-7.18-12.95-12.49-1.78-3.16-6.49-12.78-3.76-15.05,1.59-1.32,35.49,7.97,39,12.7l-2.02-7.86c-16.3-.52-34.24-4.27-40.76-21.36-1.08-2.82-3.93-13.6-1.9-15.23,1.37-1.1,28.46,11.42,32.15,13.42,5.52,5.65,6.48,4.49,2.89-3.48-15.24-1.67-32.82-8.79-37.22-24.97-.68-2.49-1.69-15.11,1.07-15.68,2.05-.43,32.64,17.79,34.19,23.18-.59-4.2-.98-7.56-1.17-10.06-13.77-3.85-28.31-11.61-32.02-26.49-1.24-4.99-3.14-19.47,3.38-19.3-3.68-6.36-3.94-18.33-.59-24.77,2.1-4.05,2.86-3.45,5.41.2-3.81-7.64-2.48-17.54-.91-25.72.65-3.21,1.17-3.52,4.12-2.89,2.07.44,25.48,26.06,25.15,31.16l1.67-7.79c-18.12-11.33-29.2-24.52-21.76-46.66,3.34-11.82,6.08-6.76,10.28,1.28,8.14,8.01,13.59,17.2,16.34,27.56l3.16-9.65c-11.83-12.32-20.56-21.83-16.76-40.68,1.22-6.06,8.72-23.13,11.84-10.07-1.98-6.93,4.19-25.24,10.05-28.86,2.26-1.39,3.08-.41,4.31,1.85,1.98,9.01,5.35,17.47,10.13,25.37l-1.55,1.79c3.65,1.66,2.43,11.67,0,14.48.96-2.89,2.67-6.53,5.13-10.93-2.91-4.31-5.61-8.79-7.8-13.51-5.38-11.6-7.08-17.43-1.53-29.61,2.37-5.18,13.03-19.9,13.74-7.42.27-7.36,4.51-15.46,9.78-20.8,7.01-7.11,9.65-8.34,9.36,3.31l.89,4.51c-5.17-8.61,12.86-35.76,19.89-32.59,1.86.84,5.14,35.69,1.7,40.18-5.49,8.43,4.27-.17,6.68-3.17-5.9-17.64-9.28-33.26,7.26-46.75,1.88-1.54,8.64-6.91,10.63-5.81.48.27.96.55,1.43.83-.23,5.38-.59,10.83-1.07,16.37.59-9.32,6.04-18.13,13.79-23.18,11.14-7.26,14.3-6.31,10.58,6.77-.27,9.28-1.9,18.21-4.92,26.79l5.6-3.03c-5.17-20.05,2.47-39.64,23.57-44.96l1.45,2.35-3.37,16.92c.5,5.54-.7,11.34-3.59,17.41l5.55-1.95c-.63-15.51,6.45-26.59,21.45-31.43,2.63-.85,13.75-3.43,14.82-.46.63,1.73-15.69,28.18-20.72,29.82,6.8,1.68,13.22,4.56,19.28,8.62l10.89,3.73c1.23.49,2.97,1.56,2.57,2.98-1.04,3.71-25.39,9.55-29.6,5.47,2.31.89,11.13,5.48,11.61,7.23,1.21,4.5-19.47,8.5-23.33,8.01,3.18,3.95-1.22,5.53-4.98,6.73l-12,3.65c.58,1.74-.04,2.81-1.04,4.16-2.44,3.3-14.68,6.73-18.89,7.85-4.77,6.14-12.48,11.58-20.18,13.07.99.22,2.11.55,2.45,1.32,1.94,4.44-12.23,13.11-15.83,14.91,1.01.51,1.46,1.33,1.63,2.42.45,2.96-13.24,13.91-16.58,15.24,1.77.39,2.4,1.3,2.49,3.07.15,2.69-13.86,16.18-17.79,17.15,1.4-.27,4.74-.02,5.18,1.3,1.33,3.98-9.97,16.91-14.43,18.22.86-.11,1.61-.11,1.99.27,1.34,1.34-6.64,18.43-9.75,19.82-1.92.86-.99-.83.52-.08,3.17,1.58-2.14,19.07-5.98,21.15,1.81-.72,2.39.07,3.26,1.62.6,1.06-4.05,22.63-8.8,21.38,2.06,1.06-8.35,7.59-7.94,7.18,2.26-2.19,7.18-5.16,9.94-6.18-1.43-2.11,2.52-4.4,3.92-2.9,2.37,2.53-2.02,18.67-3.65,22.47,2.03,6.57,1.42,15.36-.33,22.29.76.3,1.66.76,1.83,1.5,1.56,6.9,2.49,14.07,1.77,21.16,4.04,5.93,6.47,16.04,5.73,23.19,2.81-1.18,4.87,1.15,6.16,7l2.47,10.42c5.84,5.4,9.38,12.52,10.63,21.38.96-1.88,1.79-2.31,3.67-1.27,3.83,2.12,8.77,15.52,9.8,20.18,6.36,3.9,11.14,11.92,14.65,18.56,3.91-2.54,9.09,4.29,11.49,7.56,9.2,12.51,4.76,29.2.49,42.82,2.21,1.09,5.27,3.16,6.63,5.2.12.19-3.77-2.39-1.34-3.29l-2-.68c1.06-11.95,1.18-23.81.37-35.59l1.63-1.19c7.27.18,14.77,10.03,17.88,16.65-1.77-10.28,6.63-4.62,11.79-.68,13.5,10.3,13.21,31.46,9.29,46.4-.04.16-1.49-2.19.99-.42h1Z"/>
      <path class="cls-56" d="M172.83,617.44c-4.98-1.89-15.67-11.91-17.53-16.94-.71-1.92-.12-4.12-.97-6.02-.33-.73-7.97-7.45-9.89-10.09-2.77-3.84-9.34-12.54-3.6-15.39-5.53-4.07-13.08-14.2-13.94-21.06-.33-2.66.98-5.39.73-6.79-.15-.85-3.97-4.99-4.93-6.94-2.64-5.35-5.44-11.63-4.83-17.66l6.99-.49c-7.29-5.94-11.19-14.7-11.97-23.99-.42-5.01-1.44-8.12,3.97-7.97-1.12-2.35-5.99-10.07-5.99-11.99v-18.48c5.12-1.44,5.95,3.1,9.99,3.99-8.91-9.2-8.5-20.39-7.98-32.45.27-6.19.6-12.66,1.01-18.98.44-6.78,4.21-11.18,4.96-15.01,1.35-6.89-1.07-11.65,1.99-19.98,1.84-4.99,1.31-6.61,7.01-4.48-2.12-7.7-.42-14.94,2.24-22.24.45-1.23,2.51-7.41,2.82-7.67,4.41-3.67,8.33,10.96,11.92,11.93-4.21-9.54-4.28-20.3-.47-29.95.82-2.07,4.41-9.05,5.9-10.09,1.63-1.14,4.21-.72,4.49-1,.35-.34,1.01-7.16,1.89-9.6,1.17-3.26,7.58-14.76,10.78-14.99,1.04-.07,3.14.96,3.38.7s.69-4.93,1.52-6.98c1.57-3.88,7.87-13.91,11.49-15.49,1.65-.72,4.32-.21,4.85-.64.26-.21.45-2.54.92-3.54,2.07-4.43,10.08-16.47,14.91-17.14,1.43-.2,3.97,1.13,4.28.84.16-.15.32-2.81,1.16-4.34,3.71-6.69,12.75-16.78,20.82-16.65l.99,9.99c-1.83-9.24,17.84-27.08,25.4-25.04,1.12.3.41,3.93,2.57,4.07,1.03-5.51,13.62-13.9,18.53-14.07,2.67-.09,5.59,2.5,6.39,2.02.09-.05,0-1.23.81-1.9,3.3-2.7,18.35-13.8,21.81-9.07.84,1.15-3.89,15.18-4.29,18.82-.12,1.1-1.16,3.41.7,3.2,5.11-17.1,23.9-22.78,39.98-20.96,1.61,1.6-6.99,11.72-8.42,14.06-2.06,3.37-3.37,7.13-5.55,10.43l-7.01,7.45c6.41.36,10.64,5.05,15.97,7.51,3.23,1.49,14.79,3.98,15.06,7.01.57,6.26-18.01,9.54-23.05,9.48,1.27,2.25,4.78,1.59,5.59,4.94s-11.63,7.19-14.32,7.8c-2.09.48-6.14-.23-7.12.39-.46.29-.56,2.39-1.25,3.21-4.4,5.17-11.36,4.59-15.84,7.17-1.72.99-3.02,4.37-5.7,6.29-4.35,3.13-10.55,3.88-14.68,6.3-1.63.96-16.43,11.06-17.17,11.8-1.8,1.8-2.01,4.93-4.4,7.58-2.75,3.04-9.1,5.75-11.01,7.97-1.35,1.57-1.21,4.23-2.55,6.44-2.13,3.5-10.83,9.14-11.93,11.05-.83,1.45-.4,3.62-1.44,5.55-2.38,4.4-10.51,11.05-11.57,13.44-.68,1.52-.03,5.05-1.96,8.99-2.59,5.3-7.45,8.04-9.73,12.24-8.18,15.04-11.44,29.7-13.89,46.03-1.24,8.29-3.2,8.92-1.94,17.15.98,6.35-2.19,12.85-2.83,19.06-1.86,17.8,1.77,48.16,7.53,65.15,1.09,3.21,4.36,6.26,5.81,10.17,1.26,3.38,1.41,8.36,2.6,11.18.57,1.35,5.08,5.89,6.45,8.74,1.19,2.46,2.23,8.02,2.97,9.02.83,1.12,3.02,1.07,4.01,1.98,5.92,5.42,6.97,12.32,10.43,18.54.87,1.55,12.4,17.47,13.28,18.19,3.22,2.63,6.26,2.9,10.71,7.77,6.55,7.17,6.54,6.42,13.92,12.05,2.11,1.61,6.78,7.41,8.1,7.94,1.8.72,3.41-1.18,7.31.62,19.34,8.91,21.68,24.87,19.53,44.19-.32,2.85-1.89,5.64-1.89,8.6l-1.99,1c4.05-21.63,3.71-41.26-18.99-50.94,3.15,11.16.13,25.33,3.68,35.77.63,1.86,5.14,8.18,4.3,9.17-2.95-2.01-9.84-4.05-12.01-6.53-1.37-1.56,2.7-12.58,3.02-15.95,1.55-16.06-4.6-26.28-17.97-34.45v37.46c0,.75,3.26,3.18,1.5,4.49-1.32-1-8.37-4.73-8.56-5.68-1.05-5.02,8.01-17.77,5.6-30.32-.89-4.63-8.9-18.19-13.05-19.93-2.04-.85-1.41,1.38-1.49,2.47-.21,2.95.3,5.96-.1,8.9-1.3,9.38-5.72,18.39-3.9,28.58-1.49-1.02-5.47-4.23-5.85-5.7-.46-1.81,6.94-15.72,7.62-20.01,2.17-13.68-3.82-23.19-13.25-32.22.12,13.95-8.24,27.36-5.49,40.95-1.25,1.32-8.72-8.01-8.84-8.63-.29-1.49,7.79-12.85,9.03-15.66,6.05-13.76,2.99-26.61-6.68-37.64-2.59,14.62-13.65,27.81-10.49,42.95-2.61-2.64-8.84-7.86-7.26-11.69.91-2.21,6.33-7.13,8.44-10.62,5.51-9.13,7.33-15.9,4.13-26.44-.43-1.42-4.83-11.72-5.31-12.18-1.69-1.62-1.67.5-2.08,1.4-1.08,2.38-1.53,5.62-2.72,8.27-4.11,9.15-10.85,18.04-11.18,28.29-2.44-2.09-5.93-6.91-4.5-9.97,1.02-2.19,8.33-8.13,10.91-12.1,8.44-12.98,6.17-22.3.58-35.87l-14.17,22.28c-2.37,3.36-3.14,7.81-4.71,11.28-.39.87-.46,3.13-2.08,1.4-.29-.31-2.72-7.63-2.55-8.01.34-.77,9.48-8.13,11.5-10.5,5.88-6.9,9.65-14.49,9.02-23.92-.15-2.25-2.38-10.86-3.48-12.52-.81-1.22-1.21-1.17-1.97.06l-21.51,31.92-2.93-10.86c10.21-5.45,22.27-14.31,23.79-26.71.63-5.18,1.33-15.72-2.88-19.37-3.91,12.27-18.88,18.15-24,29.97-1.5,1.04-3.29-8.22-3.07-9.34.17-.88,13.15-6.49,15.8-8.41,11.47-8.28,13.02-20.94,12.25-34.19-6.31,8.3-16.34,12.72-23.98,19.47-3.12,2.76-6.22,10-7.03,3.06-1.17-9.99,5.6-7.86,13.02-11.05,15.66-6.74,20.81-17.66,20.99-34.45-.15-.2-2.44,1.56-2.99,2-1.64.75-2.6,1.01-2-1,2.14-2.81,8.74-19.59,6.98-21.98-7.81,7.04-18.36,9.12-27.26,14.19-2.44,1.39-6.04,5.27-7.21,5.79-2.25,1-1.12-1.25-1.05-2.05.21-2.34.26-5.66,2.25-6.75,3.2-1.75,13.73-2.3,19.28-4.7,10.64-4.6,18.11-15.87,17.99-27.46-10.72,6.83-24.73,8.01-34.47,15.98-2.65.22-.94-.47-.76-1.76,1.69-12.35,4.78-7.1,14.64-8.34,16.27-2.05,24.24-10.95,29.59-25.84-9.09,3.28-18.71,4.14-27.99,6.46-2.94.74-5.91,2.84-8.54,3.46-1.47.34-1.7.1-1.36-1.36.37-1.58,3.11-8.05,4.59-8.46,19.42,5.27,36.81-.21,45.3-19.07l-29.46,2-11.49,2.49c4.72-14.62,13.88-5.4,24.47-5.43,12.61-.02,21.33-8.32,28.47-17.57.42-2.26-.99-1.38-2.47-1.49-12.38-.91-26.34-.24-38.48,1.99,1.51-1.52,3.68-6.68,5-7.51,2.33-1.44,12.76,2.99,16.58,3.42,9.51,1.07,16.56.33,24.28-5.48,1.3-.97,8.72-8.09,9.07-8.92.85-2.04-1.39-1.4-2.47-1.48-3.63-.27-7.37.34-10.99-.02-8.76-.87-17.5-3.89-26.48-.99l4.03-7.98c18.71,8.08,37.68,12,50.91-6.99-13.21-.73-25.65-6.01-38.96-5.02,1.3-1.59,4.48-5.77,6.02-6.54,1.88-.93,12.74,5.81,16.16,6.85,12.6,3.82,25.5-.19,33.77-10.28-12.24-.13-23.02-7.14-34.96-9.01-1.16-1.58,5.2-6.22,6.94-4.51,9.7,8.25,19.95,13.47,33.06,11.06,2.18-.4,13.99-5.46,14.72-6.73.34-.59.34-2.69.22-2.81-.36-.36-7.24-.63-9.97-1.53-8.42-2.77-16.27-9.95-26-10.47,1.22-1.89,6.04-5.49,7.96-4.53,2.03,1.01,7.25,7.17,10.71,9.35,12.83,8.07,22.06,5.73,35.27.18.48-2.29-.25-1.59-1.27-2.23-3.42-2.15-9.61-4.06-13.73-6.22-6.06-3.18-11.48-8.72-18.96-8.52,9.04-10.05,10.91-1.97,17.5,2.98s14.85,9.83,23.69,8.76c1.75-.21,14.17-4.13,14.75-4.76,1.46-1.59-.53-1.72-1.28-2.22-6.57-4.32-16.71-6.92-23.01-12.93l-10.66-3.8c2.95-.2,7.3-4.16,10.09-3.53,1.99.45,9.88,8.91,13.94,10.94,11.14,5.59,19.33,1.09,29.9-2.93-3.35-2.63-7.76-2.61-11.66-4.32-8.18-3.58-14.33-10.03-24.29-8.18-1.39-1.21,8.34-7.87,9.41-9.06,6.1-6.7,7.96-16.43,14.56-22.89-12.64-1.13-28.44,6.59-32.02,19.42-.97,3.46-.62,12.92-1.06,13.43-.38.44-9.27,3.2-10.87,4.1l4.73-13.74,3.76-25.21c-20.37,7.67-26.5,24.36-20.56,44.85-1.13-.15-13.66,7.97-12.91,5.6,9.14-12.05,4.73-27.23,9.98-40.45-22.53,7.18-26.76,26.22-20.2,47.34-.26,1.31-11.78,9.39-12.77,8.58,3.32-6.2,6.87-13.31,7.02-20.53.08-3.9-1.23-7.55-1.07-11.97.15-4.04,1.76-8.37,2.03-12.44-1.3-1.23-10.92,6.42-12.51,7.96-7.2,6.94-9.29,14.66-8.45,24.49.42,4.94,5.21,16.16,4.81,18.78-.58,3.8-10.12,7.67-12.33,11.7-2.11.39-1.62-.79-1.29-2.29.68-3.06,2.72-5.64,3.53-8.47,3.49-12.25-1.52-24.73-.73-37.18-15.55,10.31-20.81,20.63-15.69,39.17.79,2.87,6.71,15.27,6.55,16.13-.35,1.81-8.81,8.36-10.34,10.63-.03-5.64,2.77-10.56,2.57-16.48-.31-9.14-7.36-19.34-5.07-29.46-1.4-1.58-10.98,10.21-11.82,11.64-6.49,10.99-2.98,22.14,1.65,32.99,1.14,2.67,5.23,7.48,5.16,9.84-.06,1.94-6.3,8.13-7.48,10.45-.23-5.17,1.02-10,.4-15.37-1.09-9.37-7.54-19.59-7.9-29.57l-9.8,12.66c-7.8,16.39,1.94,29.41,10.63,42.79-3.09,2.41-3.72,6.31-5.57,9.19-.64.99.11,1.77-2.24,1.29v-14.48c0-1.45-7.21-15.04-8.45-18.52-1.14-3.2-1.59-6.7-2.55-9.95-14.39,16.15-13.21,28.88-1.41,45.87,1.32,1.9,6.93,7.11,7.24,8.72.29,1.48-4.92,10.49-6.33,12.33-.82-4.32-.26-8.37-1.2-12.78-2.03-9.55-12.24-19.44-13.3-30.16l-5.16,8.3c-4.99,12.05-4.1,23.09,3.77,33.56,2.03,2.71,10.66,10.46,11.26,12.77.7,2.73-4.99,13.42-4.86,17.27l-5.44-17.01c-4.99-8.73-13.68-14.95-16.54-24.93-1.9,1.03-2.87,4.99-3.49,6.97-6.61,21.13,3.56,30.72,19.15,42.85.91.7,3.07.92,3.28,1.2.7.93-2.87,13.45-2.95,15.89l-7.54-15.91-20.41-21.04c-6.92,24.56,2.41,33.93,21.63,45.8,1.26.78,4.04,1.06,4.21,1.26.46.52-.47,13.31-.89,13.87-1.44,1.96-1.73-.58-2.09-1.4-1.71-3.87-2.1-7.26-4.9-11.08-6.02-8.22-17.86-12.5-22.48-22.47-7.2,17.12.01,30.95,14.8,40.15,2.56,1.59,13.08,5.35,13.56,5.91.74.85-.28,8.85.11,10.88-3.03-1.84-3.91-5.9-5.99-8.49-4.5-5.6-11.02-8.18-16.46-12.51-2.41-1.91-9.36-11.91-10.51-5.47-4.04,22.74,14.38,35.09,33.53,40.39.2,4.51,1.23,9.02,1.48,13.5.06,1.16.69,5.54-1.03,5.53-4.54-16.61-22.94-19.04-34.5-28.95-2.4-.95-1.57,5.49-1.52,6.52,1.11,20.39,21.09,29,38.91,30.52.41,4.96,3.62,10.07,2.59,14.89-9.86-13.2-26.04-13.38-38.97-21.97.15,25.22,20.91,34.15,43.37,33.06l4.08,15.88c-3.66-2.8-7.14-6.16-11.45-8.02-6.67-2.88-21.77-6.51-29.5-8.48-1.11-.28-1.53-1.17-.98.99,6.04,23.86,24.45,28.96,46.99,25.96l5.93,12.03c-4.79.35-8.11-6.06-13.18-6.8l-30.77-5.68c4.46,13.37,11.97,22.92,26.75,24.69,6.95.83,17.54-2.03,22.51-.53,3.12.94,3.88,7.29,6.68,9.3-4.53.81-8.15-3.41-12.56-4.43-5.19-1.2-10.62.01-14.91-.27-2.77-.18-15.25-2.7-16.48-1.79,8.17,16.7,17.75,22.44,36.45,20.95,4.49-.36,12.22-3.85,16.08-1.06,1.06.77,4.21,5.43.97,5.04-2.95-.36-5.61-1.86-9.01-2.02-3.8-.18-6.66,1.02-9.97,1.09-6.16.12-12.36-.18-18.52-.04,3.88,9.25,15.52,18.42,25.63,18.9,5.89.28,24.15-5.85,25.36-5.38,1.69.64,7.98,10.53,10.93,11.96-5.4.09-9.82-1.82-15.52-1.54-9.25.45-18.71,5.63-28.44,4.04,5.49,8.97,17.55,16.9,28.35,15.88,7.07-.67,20.75-8.81,24.1-8.82s8.44,6.61,11.48,8.42c-3.07,1.3-6.2-1.17-9.48-1.51-12.72-1.33-23.72,5.65-36.47,5.01-1.84,1.57,10.76,10.3,12.32,11.15,10.72,5.86,18.1,3.82,28.9-.4,2.89-1.13,11.9-6.67,13.29-6.79,3.04-.26,7.68,4.92,10.42,6.53-5.53.68-10.69.3-16.19,1.78-8.37,2.26-16.35,8.83-25.76,8.71,17.42,18.09,34.75,11.55,52.21-2.03.94-.73.69-1.9.78-1.95.38-.23,7.64,3.67,7.95,3.99,1.63,1.64-.24,1.72-1.51,1.95-3.84.69-6.89.8-10.75,2.26-7.66,2.9-14.77,9.78-23.7,10.77,9.45,9.73,18.27,11.11,30.64,6.15,9.41-3.77,18.54-10.78,26.3-16.16,5.52-3.82,11.59-11.8,15.43-14.04,3.65-2.13,7.1.07,10.79,1.31,28.6,9.6,56.01,36.63,64.7,65.67l16.99-28.45c11.98-14.61,25.7-27.14,43.27-34.66,3.24-1.38,12.16-4.92,15.2-4.89,4.82.04,10.39,11.89,15.45,14.06,1.76-.03,3.89,6.11,0,4-1.01.31-2.07.47-3.08.11-3.16-1.13-11.38-9.95-12.94-13.26-34.15,12.2-59.55,38.21-71.68,72.36-2.06.98-3.89.97-4.97-1.09-8.49-23.65-23.88-45.15-45.68-59.04-4.72-3.01-21.37-12.58-25.47-10.67-11.46,12.46-25.59,22.94-40.93,29.56,34.16,5.34,70.38,14.85,97.7,37.09,6.15,5.01,13.61,11.17,16.63,18.33,3.62-7.04,11.09-12.96,17.47-18,28.12-22.2,63.9-32.6,98.85-37.54-1.4-.22-1.81-1.44-1.93-2.88-1.99-5.05,5.75-2.58,8.12-.14l2.87,1.14c1.72,1.39,9.59,1.68,9.99,2,.54.44-1.02,2.69-1,2.99l-4.16,2.48c-46.79,5.4-96.62,19.39-127.09,57.22-2.07,1.69-4.22,1.33-5.82-.71-29.03-38.69-81.37-50-126.85-57.11-2.42-.58-4.45-1.11-4.81-3.88-6.56-2.97-10.13-3.3-16.04-8.44-6.27-5.46-4.25-3.22-11.61-6.37-5.28-2.26-21.54-10.87-12.31-16.15-8.29,1.17-21.19-7.59-24.89-14.59-.91-1.72-.75-4.37-1.31-5.18-.74-1.07-11.93-7.02-15.17-11.31-3.48-4.61-2.09-3.55-1.6-7.9,4.72-1.84,5.05-2.71.98-2.59l-.98-2.4Z"/>
      <path class="cls-40" d="M598.42,271.8c6.47-3.21,13.78-1.34,17.96,4.52,1.23,3.94,11.27,13.45,11.84,16.19,2.1,10.1-19.67,19.9-17.81,31.23,4.54-.89,5.36-7.14,9.93-8.54,5.87-1.8,12.23-.94,15.87,4.22,1.71,2.42,9.5,16.76,9.96,19.06,1.44,7.09-4.98,6.13-5.8,7.26-.77,1.07,10.7,17,12.18,20.27,7.95,17.59,9.5,41.18-5.19,55.62,18.83-6.43,28.32-7.98,26.96,15.48-.15,2.53-2.02,19.58-2.47,20.5-3.07,6.23-27.47-1.8-29.48,11.56-.25,1.68.78,8.15,1.93,8.99,2.74,2.01,16.26-5.86,21.54,6.41,1.77,4.12,1.03,13.65.27,18.24-.81,4.85-4.38,7-5.76,11.73-1.44,2.94-4.24,4.35-8.4,4.23-9.77-.02-20.59,1.11-24.3,11.37,3.46-4.46,28.09-8.28,30.36-5.51l-.65,8.9c-1.85,10.19-3.34,19.98-8.12,29.34-9.05,17.75-31.42,33.54-51.82,26.61l14.7,8.25c5.57,10.45-1.78,16.8-7.73,24.22-.78.97-2.49,1.24-3.04,2.16-1.82,3.04.61,6.9-5.34,6.29-.45-.05-7.66-2.59-8.58-2.98l-1.87,1.33c-12.04-7.41-15.69-8.91-.71.15l-.43,2.52c.14.29.96,5.78.93,6.42-.32,7.12-10.45,13.81-14.92,19.05-1.18,1.38-1.96,4.39-2.97,5.04-4.07,2.6-9.52-5.92-11.01-4.53-.44,3.69-2.47,9.76-5.07,12.41-2.39,2.43-19.11,14.32-22.23,15.73-4.32,1.95-9.16,2.3-13.66,3.82-.79.27-.98,1.59-3.26.86-2.46-.79-4.64-6.17-7.73-1.86-8.43-.21-19.99-7.57-23.98-14.98,2.17-.74.09-3.07,0-4,0-.11.79-.69.69-1.34-1.14-6.97-3.2-11.22-.42-18.87,2.13-5.86,7.01-5.99,7.57-6.91,1.02-1.64-.98-7.52,2.69-11.8,2.74-3.2,5.81-1.54,6.4-2.09.2-.18.22-3.49,1.18-5.32,3.73-7.13,18.98-14.94,25.85-18.6,2.64-.03,2.65,1.01,1,3,2.76-.82,3.48.66,2,3-.3.64-.63.62-1,0-.45,1.68-1.81,2.19-4.08,1.54,3.79,10.72,5.46,21.82,1.69,32.82l-2.61,1.6-2.46-1.96c-.39-9.73-1.81-19.13-4.26-28.22-6.58,3.96-13.42,9.1-12.51,17.71l-1.02,1.28c-5.89-2.71-8.51.5-7.86,9.62-1.46,1.06-3.18,1.98-5.18,2.76-1.67,3.04-3.56,5.14-5.67,6.3.77.1,1.88.29,2,.87.25,1.24.28,14.15,0,15.23l-2,1.39c1.22-.68,3.24-.17,6.05,1.52,7.05-3.77,12.72-4.28,20.41-2.62,10.54-2.08,20.86-5.35,30.95-9.79,3.95-1.71,8.09-1.73,8.4,3.37,9.26-5.85-6.79-9.46-11.75-8.31-4.86,4.59-9.5.4-12.1-4.16-3.49-.82-1.21-5.65,2-4.99,12.7-5.27,23.8-.85,33.79,7.67,5.48,4.03,5.53,1.15,4.26-4.09l1.91-1.59c1.27-1.63,2.45-1.17,3.52,1.4,17.04-11.5,8.86-20.15-7.23-24.37-.12,2.42-.88,4.08-2.28,4.99-5.71,1.6-7.9-15.83-1.04-11.67,10.33-7.23,22.43-2.17,32.04,4.01l4.21,1.55c.34-3.19,2.26-4.82,5.74-4.87l-.28-2.71c13.04-12.11,9.06-15.76-5.98-22.14-2.41.02-4.65-.03-6.73-.12-.88,4.3-4.8,2.8-3-1-3.11.11-3.62-1.34-1-3,4.06-9.3,9.84-10.47,18.27-5.28,27.48,3.68,46.16-25.85,49.79-49.8,1.84-12.18-23.13.5-24.74,7.58-2.58,1.63-8.62-3.74-8.36-6.45,1.29-8.41,1.54-17.06.77-25.95.22-5.35.86-10.95,3.39-15.76,1.68-3.19,4.99-8.93,8.83-7.24,3.26,1.47,3.12,13.73,0,15.48,2.08,1.63,1.91,3.95-.49,6.96-9.15,11.5-8.6,12.67,1.66,3.5,7.39-.47,14.62-1.46,21.7-2.96.88-3.37,1.92-4.71,3.11-4,3.63-3.53,3.57-6.22,1.38-10.58,8.6-12.92-6.36-14.85-16.3-12.56l-2.07-1.83c-2.42.06-4.68-11.95-4.51-13.6,1.11-11.01,16.85-12.18,25.32-11.98,9.44-1.86,5.02-4.09-1.61-3.51-2-2.76-.61-5.66,1.78-2.87l1.31-1.76c7.62,1.38,6.99-19.91,4.13-23.48-2.59-3.24-18.7.2-21.42,3.27,1.37,1.95.04,2.76-2.16,1.99-5.44-4.42-6.58-.69-3.41,11.21.87,5.01.62,21.71-6.61,17.77-1.12-.61-10.82-21.86-3.8-22.98,1.65-4.28,2.75-8.78,3.31-13.51,13.05-7.22,20.59-13.54,19.77-29.88-.73-14.7-8.23-29.51-17.08-40.98l-5.57,13.15c-1,1.68-1.99,1.79-3.42.3-2.6-.49-2.3-5.02-1.94-7.3,1.24-7.94,8.37-13.72,15.17-17.18-1.78-.78-2.52-1.95-2.24-3.5.15-2.64-1.24-5.35-4.15-8.13-3.55-16.21-16.52-7.37-21.71,2.59l-2.11.55c1.58,1.34.31,2.83-1.55,2.2-4.04-1.37-4.7-20.23.23-23.21l14.22-16.12c-1.95-1.5-3.59-3.11-4.91-4.83,2.22-3.34.96-.77.72-.93-.73-.51-3.6-3.52-4.24-4.32-4.77-11.78-14.23-12.63-18.8-.32-4.86,3.46-5.91,6.25-3.15,8.37l-.51,2.2-1.3,1.84c-9.36-2.11,4.21,10.39,7.65,11.87,3.63,1.86,6.04,12.84,2.18,14.52-2.62,1.14-23.79-12.95-21.81-19.55.39-2.94-.51-4.83-2.7-5.68-2.09-.98-2.83-4.69-3-6.99-2.04-2.33-.52-3.81,2-2l2.24-.77c4.65,5.73,7.54,4.13,8.67-4.8,3.33-3.15,6.08-6.82,8.26-11l3.8-.41Z"/>
      <path class="cls-17" d="M327.68,466.6c4.49-1.71,11.42-3.18,16.12-2.57,1.34.17,24.27,8.36,25.36,9.16,2.21,1.61,2.27,3.94-.52,4.4-.03.48-.09.94-.3,1.33-.42.8-17.41.66-18.03,0-.32-.34-.51-.82-.65-1.33,2.86.06,2.73,2.32,0,3,.02-.49.08-.96.29-1.33.45-.78,16.85-.67,17.19,1.33,4.22-3.9,6.65,4.48.53,6.29-10.81,2.75-21.7,5.15-32.69,7.2l35.19-5.29c4.67,1.18,2.19,4.89-1.18,6.38l4.54-.57c-.23-3.22,2.14-4.23,7.11-3.02-.67-2.84,3.11-3.6,5-2,2.11-1.37,3.55,1.34,2.5,3.06,3.96,2.57,1.94,7.36-2.74,5.56-5.9,10.38-14.64,21.76-25.73,26.34.67,2.77-4.4,6.92-6.99,4.99-17.15,8.69-45.13,3.23-62.94-2-13.28-3.4-7.3-15.68-2.43-24.26,4.47-7.86,10.75-18.19,18.42-22.69,3.28-4.31,16.62-12.46,21.98-13.99Z"/>
      <path class="cls-82" d="M462.55,458.61c1.8-2.49,3.48-1.99,4,1,12.6,2.92,26.51,14.78,34.94,24.5,2.65,3.06,14.83,18.76,13.93,21.79s-20.9,12.15-24.89,13.64c-4.7,5.74-16.51,7.24-24.07,7.69s-19.47.36-24.89-4.7c-7.4.72-26.9-28.64-27.04-32.01-.11-2.7,2.73-3.92,4.49-1.98.72-1.42,1.69-2.49,2.89-3.22,7.28.01,14.57,2.17,21.87,6.48-5.97-2.67-11.55-5.9-16.73-9.69-2.56-3.01-.99-4.16,2.54-3.53l2.14-1.61c-4.47-.4-8.18-1.86-11.13-4.39-3.25-1.58-1.98-4.71-.56-7.46,2.88-5.59,19.41-8.16,25.29-8.27.31,0,.64.59.97,1.36,5.51-.72,10.94-.59,16.27.38Z"/>
      <path class="cls-45" d="M373.64,397.67l2.55-.29c4.57,5.75,8.9,11.69,12.99,17.81l-.56,2.46,2.11,3.11c.02,10.8-.23,21.63-.74,32.47-4.07,3.42-5.99-.96-7.06-4.73.72,3.54-.03,8.36-3.3,4.11-1.2-.1-1.86-1.1-2-3l-2.83-.83c-4.08-8.18-8.79-15.93-14.14-23.27l13.46,25.46c-.03.2-1.05,3.45-1.13,3.64-2.37,5.13-17.82-12.63-17.08-11.81l20.55,21.93c1.36,2.91,3.26,6.99,1.19,8.99-4.11,3.96-36.13-10.12-38.98-16.12l-3.26-.73c-9.56-7.72-23.21-34.93-21.49-47.23.17-1.19.97-2.15,1.77-2.99-.24-3.42-.21-24.76,1.02-25.95,14.16,1.09,28.46,3.24,41.62,8.79,3.23,1.36,13.08,6.14,15.3,8.17Z"/>
      <path class="cls-92" d="M405.6,491.57c-4.61-8.81,6.18-1.68,8.77,1.36,9.58,11.26,14.85,24.38,18.2,38.59,3.32,1.08,4.47,10.61,1,11.99-.33,4.84-2.41,11.75-3.98,16.5-4.87,14.68-14.3,27.2-23.97,39.01-2.72,1.34-22.48-19.23-25-22.55-2.58.82-2.68.07-1-2-2.8,1.56-7.36-5.75-5-7.99-6.1-4.37-10.48-17.89-7.99-24.97-.38-5.92-.33-11.79.15-17.63,5.31-5.44,10.46-11,15.43-16.69,4.24-9.87,8.47-2.87,4.83,4.4,4.89-18.17,11.03-2.49,8.83,8.63-2.18,11.07-2.26,21.83-.26,32.28-.84-2.6-2.43-14.89-1.33-16.84.2-.35.72-.52,1.33-.64-.51-.03-.98-.12-1.31-.38-1.22-.98,6.6-23.2,7.82-23.94,1.01-.61,2.01-.87,3.19-.49-.49-5.51-.4-10.72.29-15.65-1.45-1.81-1.45-2.81,0-3Z"/>
      <path class="cls-5" d="M419.59,386.68c6.58-4.26,34.6-16.66,41.3-15.04,1.8,2.67,2.79,6.67,3.38,9.82.97,5.17,2.19,14.09,2.27,19.21l1.27,1.67c.31,7.9-1.17,21.3-3.43,28.9-1.55,5.22-4.92,15.73-10.83,15.38-5.69,6.04-13.28,9.51-22.76,10.39-7.32,3.63-9.97,2.42-7.94-3.62l-2.27-.77c.31,3.1-2.81,3.91-5,2-2.62,1.1-2.7,0-1-2l-.58-2.44c9.3-9.91,17.74-20.42,25.32-31.53-6.45,9.37-15.08,21.2-25.52,25.56-.26,2.47-1.33,3.61-3.22,3.42,1.24,1.4.65,1.99-1,1-.97,3.38-3.15,2.04-3.58-1.18l4.26-9.11c-4.56,6.54-8.78,13.3-12.67,20.27-1.24,4.2-5.44.72-7.04-1.84-1.49-2.4,1.04-30.84,1.84-34.17,1.32-2.21,2.39-4.86,3.2-7.95-4.55-6.13,19.35-28.77,21.98-29.04l1.99,1.07Z"/>
      <path class="cls-40" d="M582.43,360.71c-13.87-1.66-19.99-19.09-16.98-30.96-3.5-.25-9.54-1.16-12.03-3.74-.75-.78-10.23-15.28-10.48-16.22-1.13-4.31.81-10.97-.86-13.04-4.1-5.08-9.65-1.72-13.94-3.13-2.18-.72-2.12-4.46-3.64-5.35-2.41-1.41-6.16-.08-10.5-3.49-2.67-2.09-4.29-6.61-4.65-6.83-.94-.58-4.26.05-6.11-.39-5.35-1.25-14.2-3.05-17.17-7.81-5.58-8.95,2.57-18.03,6.45-25.92-9.14-1.14-12.9,16.98-18.53,17.97s-4.46-2.27-7.13-3.81c-6.15-3.56-17.72.47-19.12-11.93-.31-2.75,3.79-13.58,5.4-16.12,4.02-6.33,19.26-9.59-2.6-9.08,1.49-4.99-2.53-8.26-3.53-11.97-1.49-5.55,2.89-20.69,8.02-24,7.86-5.07,11.59-.49,17.81,3.18,1.48.87,3.54,1,5.04,1.95,2.89,1.82,2.97,5.18,4.4,5.84,5.02,2.34,6.01-4.13,12.81-4.9,6.14-.69,16.22,3.98,20.9,7.89,1.73,1.45,3.25,4.97,4.48,5.58,1.44.72,3.56-.96,3.99-.58.23.2.79,5.8,1.01,6.01.38.36,6.71-1.62,10.28-.79,2.2.51,3.62,2.52,5.68,3.3,2.62.99,5.74.5,8.38,2.61s2.34,5.57,3.6,6.39c1.15.74,3.37.3,4.98,1.01,4.78,2.1,1.48,6.58,2.06,7.42.3.44,7.98,2.45,10.01,3.5,14.16,7.26,18.06,17.33,18.94,32.5.48,3.94-.19,5.94-2,5.99-1.31,2.6-3.09,1.84-3-1l-1.39-2.2c4.96-15.93-8.17-26.76-21.08-32.79-12.12-5.67-10.27,9.68-5.7,15.9-2.45,4.42-1.8,9.44,1.96,15.06,3.03,12.94-10.54,6.18-6.76-1.96l-1.21-.02c-7.93-14.29-10.77-28.39,5.05-38.41-3.02.16-5.3-.35-6.84-1.52-.47-.31-.45-.64,0-1-.42-7.29-21.88-15.15-24.19-5.34-.71,4.91-1.64,9.68-2.78,14.33,1.05,1.06.39,1.73-2,2,3.52,3.36,7.98,5.8,13.38,7.3,10.63,5.38-4.51,9.59-10.16,9.97-10.01-15.8-8.97-25.52-3.03-42.59-1.63.2-3.02-.02-4.19-.65-1.25-.73-1.7-2.26-1.36-4.61-9.86-6.67-24.23-16.28-25.21,3.34-4.88,5.58-5.17,16.36,4.47,11.08l1.11,2.17.78,1.15c-3.51,2.42-7.11,5.03-10.77,7.84,1.4-3.21,12.9-3.12,14.49,0,1.7-3.54,10.74,2.37,9.67,5.38-.49,1.38-24.91,3.56-25.7,2.52-1.34-1.76-.98-2.7-.04-4.71-9.92-9.89-7.65-21.25-2.49-32.82l-1.92-1.33c-2.03.65-3.31-.91-3.83-4.68-.76.12-1.92-.51-2.55-.93-10.06-6.75-12.95-8.33-18.1,3.13-3.64,8.1-2.75,22.44,6.17,8.87l2.32.61c2.39,2.79.79,5.99-4.8,9.61,7.1-3.73,26.23,15.52,25.11,19.16-2.2,7.11-14.72-4.99-16.58-8.45.51,1.99-.06,3.21-1.73,3.65-5.64-2.59-11.49,12.05-11.76,15.48-.39,5.1,13.22,8.78,16.75,6.49,1.72.36,2.94,1.59,3.66,3.68,4.79-9.45,9.4-15.19,19.94-17.71,5.08-1.21,17.25-3,20.55.89,15.36,19.92.29,14.27-12.17,5.14-.26,1.65-1.49,2.61-3.7,2.88-1.39,1.09-8.58,14.15-8.57,15.8.07,8.86,26.32,16.03,21.1,4.34l1.15-2.05c-1.11-2.39.16-3.42,2.67-2.57,2.76.93,2.32,6.94.33,8.57,2.86-1.53,3.13,1.73,2.32,4.23,10.98-5.61,29.46-7.89,38.17,2.67,3.35,4.07,6.99,13.44-.67,9.98-8.56-11.35-23.31-11.8-35.44-7.02,6.54,1.12,10.81,3.81,12.81,8.07,6.34.67,12.61,1.87,18.8,3.59l-.02,2.46c-.48,2.09-1.43,4.33-2.87,6.74-1.65,6.38,8.28,20.55,14.9,22l.95,2.22c6.05-1.53,11.51-4.14,17.05-7.5,17.08-3.2,23.87,9.65,29.1,23.26l9.41,8.63c3.23,3.16,5.43,9.61,1.39,12.57,2.67.14,2.91,1.06.16,1.59.12,1.54-.27,2.34-1.16,2.41l-1.93-1.12c.6-4.62-1.27-7.81-4.99-10.25-9.43-5.65-14.8-10.57-14.54-22.66-.27-3.14-2.06-3.43-5.35-.85l-2.15-1.08c-1.22-1.8-.67-2.6.61-3.93-8.55-.23-27.26.27-20.65,13.06,1.7,6.05,3.58,10.72,8.05,14.84h1c2.15.21,3.15,1.21,3,3,2.4.53,2.35,2.25,0,3Z"/>
      <path class="cls-28" d="M255.75,692.36c9.39,4.25,20.38,4.28,31.15,6.31,30.96,5.82,69.36,19.34,92.22,41.64,1.77,1.73,10.18,12.77,11.1,12.93,2.03.37,4.87-4.9,6.36-6.47,33.31-35.17,81.04-47.31,127.9-52.42.15,1.8,2.4,5.46,3,7.99l-4.96,2.19c-48.29,2.45-94.53,22.75-128.42,57.32-1.88,2.51-4.3,2.63-6.42.72-32.41-34.64-79.88-55.37-128.07-58.03l-4.86-2.2c.63-3.21,1.03-6.7,1-9.99Z"/>
      <path class="cls-84" d="M527.48,702.35c4.31,18.35-7.91,12.89-21.21,15.25-37.45,6.66-73.71,20.64-99.7,49.15-1.93,2.12-6.22,9.23-7.97,10.01-2.2.97-13.52,2.04-15.55.57-1.5-1.08-7.57-10.51-9.9-13.07-20.38-22.33-55.65-37.58-84.8-44.07-10.91-2.43-21.99-3.18-33-4.97-5.43-4.26-1.37-8.98-.6-12.88,44.69,1.25,89.22,18.19,122.89,47.44,2.14,1.86,11.69,12.72,13.34,12.43,35.49-37.19,84.96-58.57,136.5-59.86Z"/>
      <path class="cls-107" d="M419.59,386.68c-7.08,4.58-22.58,19.68-23.98,27.97-.28.87-.62.86-1,0q-1.67-2.52,0,0c.73,6.66-2.79,12.43-5.99,3-4.66-5.33-9.82-15.25-14.99-19.98-1.82-18.37,6.14-35.67,5-53.95,2.18-.31,3.6.05,5.57.93,3.14,1.39,15.63,11.68,18.45,14.52,7.09,7.15,14.28,17.73,16.94,27.52Z"/>
      <path class="cls-8" d="M441.57,522.54c18.86,4.41,30.87,3.79,48.95-3,3.13,3.67,6.83,7.88,10.52,10.96,2.11,1.76,11.87,7.58,12.24,8.21.57.97.63,3.07-.41,3.9-1.75,1.4-17.19,6.55-20.36,7.39-21.16,5.56-39.36,2.09-58.94-6.49.31-4.53-.58-7.78-1-11.99-4.68-12.49-4.26-17.68,8.99-8.99Z"/>
      <path class="cls-93" d="M466.54,400.67c4.2-.75,21.11-13.79,23.98-10.99,1.17,25.75-4.28,52.11-23.98,69.93-1.28-.3-2.78-.88-4-1-5.85-.95-11.79-1.05-17.82-.3-1.55-1.14.71-4.15,1.69-5.27l7.14-6.42c10.85-9.95,11.82-30.02,11.95-43.53.01-1.29,1.04-2.29,1.04-2.42Z"/>
      <path class="cls-74" d="M315.69,406.66c1.65,23.97,8.14,33.81,22.98,50.95,6.49,4.45,9.44,7.77-.35,6.56-3.69.7-7.23,1.18-10.64,1.43-5.78-.99-21.43-17.6-24.98-22.98-5.04-12.43-9.99-25.34-13.58-38.59-.26-1.32.12-4.22,1.59-4.37,3.5-1.23,4.75,1.82,8.44,3.05,5.35,1.77,10.97,3.06,16.53,3.95Z"/>
      <path class="cls-56" d="M603.41,429.64c2.79.38,3.44,4.53,1,5.99,1.96.64,3.18,2.5,3.64,5.58,2.55,3.17,7.12,4.69,13.7,4.57,3.63,1.17,11.65,14.23,11.43,17.4-.2,2.89-2.08,5.71-4.8,3.42l-2.33.07c-11.31-20.02-23.18-2.98-26.43,11.68l-2.21,2.24c1.33.55,2.14,1.96,2.45,4.22,14.07,4.92,18.19,8.26,19.66,23.28.44,4.52,2.05,22.93-5.13,18.45l-2.12-1.18c.33-4.12-9.85-31.17-13.04-30.99-6.93.39-11.09,17.83-9.97,24.15-4.56,3.16-6.14,8.12-4.75,14.89l-.52,3.44c-6.15,7.86-7.78,21.09,1.15,27.45,1.64,2.33,2.31,5.01-.72,6.2,1.91,3.07-1.84,13.13-5.99,11.99-4.55-5.25-9.11-10.55-13.7-15.9-3.82-3.22-13.52,10.11-13.73,11.83,3.05.12,4.2,1.14,3.46,3.07l-.97,2.09c-1.27-.08-7.88.45-7.88,1.48,4.46,4.47,7.14,8.91,8.4,15.25.81,4.08,2.02,12.94-2.55,14.14l-2.34-1.44c-1.17-9.37-4.54-12.87-10.13-10.48l-11.22,5.98-2.28-1.05c-.51-.95-.87-1.92-1-3,7.95-4.23,12.98-9.29,22.97-7,1.68-1.48-7.39-9.89-7.87-11.69-.7-2.59,3.76-5.29,5.3-7.37,3.12-4.22,7.8-13.52,12.2-15.77,3.66-1.88,10.2-1.77,13.36.87l2.21-.54c6.22,11.94,10.93,9.53.93-.34.72-.93,1.17-1.97.86-3.12-1.21-4.84-1.09-14.23.48-19,2.16-6.58,2.21-6.07,3.52-13.46,1.28-7.22,4.57-9.29,5.77-13.21,1.07-3.49.66-7.14,2.35-11.64,1.55-4.12,8.34-11.33,8.45-12.07.92-6.28-2.95-15.03,1.54-21.93.74-1.14,2.41-1.43,2.9-2.3,2.12-3.76,3.05-10.07,7.95-12.28,1.65-1.26,1.49-3.55,0-4.99-5.96-2.58-6.72-13.25-6.99-18.98.06-2.86,2.32-2.73,3,0Z"/>
      <path class="cls-2" d="M366.64,541.52c1.28,8.6,4.11,17.21,7.99,24.97v2.43s-9.64,10.55-9.64,10.55c-12.56,8,9.16-3.55,12.45-5.81l2.19.83c.52.74.76,1.68,1,2-5.46,4.05-11.23,8.09-17.3,11.17-3.15,1.6-18.04,8.95-20.24,5.86-.9-1.27,2.24-11.78,2.56-14.54.75-6.38.36-13.72,1.14-19.83,1.27-9.95,4.16-19.74,5.86-29.6,1.99-1.01,4.64-4.11,6.99-4.99,6.55-4.89,8.75-.78,6.61,12.35l.38,4.64Z"/>
      <path class="cls-112" d="M305.7,480.58c-6.27,8.24-19.14,24.55-21.27,34.17-1.86,8.39-1,8.04,5.29,12.78-9.81-2.88-17.26-5.99-25.89-11.57-2.16-1.4-12.1-8.49-13.14-9.84-4.02-5.24,8.82-6.71,12.73-8.37,14.01-5.97,26.85-14.53,42.28-17.16Z"/>
      <path class="cls-21" d="M259.75,338.73c0-1.09-1.79-2.19-.51-4.96.6-1.32,7.65-6.9,9.03-7.05,4.27-.45,14.07,5.6,18.45,7.01,1.55-1.73-2.69-15.3-1.59-19,1.03-3.49,8.39-7.44,11.99-8.04,1.23,4.72,12.27,18.72,11.67,22.42-.06.35-5.36,4.13-6.06,3.63-2.66-5-5.4-10.27-8.54-14.99-.76-1.15.25-2.59-2.47-1.98-.34,5.84,4.59,19.67,1.47,23.94-1.89,2.58-4.53,3.12-7.47,2.03l-1.89,1.38c-11.72-7.72-12.56-6.64-2.52,3.23l-.58,2.38c-1.76,2.5-1.53,2.52-4,4.99-2.05,1.33-4.19.67-6.41-1.96l-10.56-10.54-.02-2.48Z"/>
      <path class="cls-114" d="M377.63,449.61c1.65,3.23,1.54,5.31-.35,6.22,3,3.67,3.19,7.72,3.21,12.2,4.84,4.4,5.08,6.92.74,7.55-2.19,2.54-8.64,13.29-2.68,12.88l2.07,3.11c-1.53.53-4.65,1-4.84,1.16-.47.39-.05,2.62-1.09,3.37s-3.53.35-5.07.95c-4.49,1.75-12.54,6.66-16.46,7.52-.55.12-1.65.24-1.5-.51,3.24-8.41,14.41-7.22,19.98-13.48l-45.95,6.98c-2.59-2.2,8.16-5.22,8.99-5.49,8.72-2.74,26.07-4.07,32.7-7.26,1.42-.68,2.62-1.41,2.26-3.22-.98.29-2.1-1.01-2.49-1.01h-17.48v-3h18.98c-.14-1.13.59-2.24-.59-3.09-2.89-2.07-10.91-3.17-14.39-4.41-11.41-4.06-12.61-7.3-25.98-3.5v-1c3,.51,11.49-3.9,15.98-2.01-1.54-2.06-3.31-4.04-4.99-5.98,7.72,3.68,15.34,9.17,23.46,12.01,2.58.9,14.54,4.75,15.5,1.46-.48-3.04-3.91-6.44-6.02-8.94-3.97-4.72-19.44-19.17-20.94-23.02-1.22-3.13,3.08-.37,3.88.12,5.24,3.28,11.62,12.11,15.08,13.9,1.74.9,1.9.19,2.99-1.01l-18.95-35.47c11.86,7.45,16.9,21.42,23.97,32.96Z"/>
      <path class="cls-59" d="M382.63,308.76c-12.09,2.72-14.92-12.45-23.97-16.98l2.99,18.98h-6.99c1.09-5.13-5.52-20.68-3.53-23.98.43-.71,1.65-1.26,2.47-1.53,11.2-3.74,16.6,9.31,23.02,15.53l-.99-17.98c1.41-.18,7-.25,7,1.5v24.47Z"/>
      <path class="cls-25" d="M449.56,296.78c2.13,4.02,2.08,5.36-2.94,4.26-4.86-4.33-18.33-11.27-20.79-1-2.77,11.59,20.59,10.08,5.43,5.36-10.94-10.64,12.9-7.8,16.42-2.81,2.69,3.82-2.16,18.27-9.11,14.17-5.6-1.67-10.78-1.57-15.98-4.99-10.37-1.87-13.12-20.41-2-21.98,6.06-4.24,21.86-1.55,27.38,3.11,2.21,1.87,1.19,3.26,1.59,3.89Z"/>
      <path class="cls-25" d="M505.51,329.74c3.76,5.88-3.48,8.64-8.91,7.53.1,1.97-.27,10.64-1.69,11.32-.76.36-1.58.33-2.39.13-8.65-8.44-3.19-5.73-4-14.39-.23-2.48-2.71-6.88-5.53-4.64-4.99,3.96-1.3,9.95-10.45,4.05l-1.35-2.31c3.78-6.72,7.75-13.33,11.9-19.84l2.44-.83c11.02,7.01,13.71,7.36,19.98,18.98Z"/>
      <path class="cls-53" d="M538.47,385.68c-.39.57-.14,1.79-1.43,3.03-8.92,8.55-22.67-7.68-19.82-16.71,3.23-10.22,16.7-13.53,24.24-5.79,1.75,1.8,8.08,13.06,7,14.47-1.36,1.78-4.74-.04-5,.01l-2.14-.66c-.72-7.58-12.16-15.5-2.62-2.56,1.67,2.45,1.59,5.19-.23,8.21Z"/>
      <path class="cls-53" d="M331.68,291.79l-7.94,14.89c1.49.63,17.29,7.32,15.93,9.07-9.09,5.16-13.58-2.75-21.97-3.98-.89.85,4.37,8.14,3.86,10.38-.4,1.74-5.35,3.35-6.74,2.48-.93-.59-9.4-18.66-9.7-19.85-1.02-4.11,2.85-6.02,6.5-5.92.4,1.11,3.96,10.78,5.07,9.92,2.75-7.76,4.21-18.87,15-16.97Z"/>
      <path class="cls-53" d="M254.75,344.73c1.15,2.81-.41,5.83-4.7,9.07l-1.79,2.93c13.52-12.36,30.4-6.47,17.48,10.98-1.22,2.1-9.01,10.27-11.37,9.85-1.02-.25-1.18-1.11-1.61-1.86-.51-1.45-.61-2.98-.3-4.57,10.49-8.01,10.08-13.73-1.46-2.59l-2.23-.83c-2.44,1.29-6.88.69-8.73-1.25-4.84-5.11,6.84-25.52,14.72-21.72Z"/>
      <path class="cls-31" d="M438.57,316.76c5.07,2.45,8.94-11.04,7.56-13.03-1.77-2.57-22.03-6.69-14.52-.49,2.88,2.38,8.11-.77,5.81,6.87-.92,3.05-9.71-.73-11.28-2.39-5.33-5.63-1.53-14.47,5.96-15,6.79-.48,10.5,3.64,15.47,6.56,2.78,1.63,2-.91,2-2.5,1.68,2.66,3.57,4.65,6.99,4,.7.34,1.72.95,1.6,1.49-.41,1.81-5.53,17.18-6.23,17.81-.65.58-1.52.7-2.35.68-4.27-2.11-6.44-2.64-10.99-4Z"/>
      <path class="cls-25" d="M479.53,307.77c4.04,4.07-3.31,5.78-6.7,3.22-5.78-4.25-8.42-4.75-7.9-1.53,6.2.13,14.43,9.35,5.05,10.79-11.85-6.71-15.24-2.38-1.74,2.47,3.61,2.07,4.19,7.85-.69,7.02-5.24-2.9-12.42-6.24-17.98-8.99l6.99-19.98,1.96-3.57c1.37-.96,11.58,4.21,13.7,5.4,2.59,1.45,5.26,3.96,7.32,5.17Z"/>
      <path class="cls-90" d="M414.6,286.79c-.15,2.66-2.43,3.73-6.84,3.21-4.98-1.18-7-.54-6.05,1.93,16.35-2.81,13.88,12.23-1.49,7.69-3.8,3.17,8.7,4.06,9.93,3.82,6.29,5.38.72,8.46-5.54,6.33-4.68-.57-9.18-1.56-13.99-1v-23.48c0-.33,1.32-1.52,1-2.5h15.48c.34,0,6.28,1.3,6.57,1.47,1.03.61.67,2.17.93,2.53Z"/>
      <path class="cls-73" d="M479.53,307.77c1.88,1.1,5.23,2.51,5.99,3-2.73,8.36-10.63,14.44-12.99,22.98-1.75-1.13-3.51-3.18-5-4,6.35-6.22-8.82-6.95-9.9-10.64-.41-1.4,1.17-4.95,2.52-5.26l11.38,4.91c3.38-5.96-8.3-7.25-8.99-8-.57-.62,1.27-4.62,1.01-5.98,2.72-2.36,14.97,10.95,15.98,3Z"/>
      <path class="cls-10" d="M399.61,202.88h18.98c-2.01,3.43-12.99,8.52-13.84,11.71-.91,3.41,4.64,14.04,4.84,18.25-1.23,1.29-14.68-10.03-17.48-9.95-2.56.07-11.54,8.91-15.97,9.97-2.59.62-.96-.81-.73-1.73.92-3.75,5.6-14.15,4.56-17.01-.61-1.67-10.6-7.72-12.87-9.16-.82-.53-2.04.56-1.46-2.08h19.98c.16-2.5,5.39-20.99,6.49-20.99l7.49,20.99Z"/>
      <path class="cls-22" d="M585.43,357.71l2.31.84c.86,7.75,2.16,15.38,3.89,22.9,5.02,5.59,8.69,11.98,11,19.15,4.8,3.33,9.93,6.21,15.41,8.63.46,5.04,1.3,2.79,2.54-6.76,3.81-10.91,7.07-1.71,5,5.21l4.23,11.99-1.43,1.97c-.55,2.7-2.46,3.49-4,1-2.48-1.15-5.06-2.78-7.74-4.91-3.47-.83-5.89-2.19-7.25-4.08-2.79.78-2.96-.07-1-2,.96-.18,2.3.64,1.99-.99-8.64-1.96-12.13-3.89-15.29-12.19-.69-1.81-.38-4.22-1.2-5.79-.75-1.42-2.92-1.84-3.89-3.1-7.47-9.67-3.46-18.54-7.58-28.88-.28-.69.29-2.61,0-3,.28-.87.62-.86,1,0,.99-1.49,1.62-1.84,2,0Z"/>
      <path class="cls-19" d="M660.36,514.55c-1.75,6.01-1.91,12.98-3,18.98v-8c-10.59.94-24.06.31-31.47,8.99-3.3-7.28,7.64-15.99,14.08-16.89s13.72.1,20.39-3.08Z"/>
      <path class="cls-81" d="M414.6,286.79c1.67,2.33,2.96,3.03,5.99,3-8.21,5.75-5.65,16.95,2,21.98-5.8-2.63-9.43-.91-14.56-.88-2,.01-2.98-1.06-3.43-1.11,1.22-.21,5.68.32,6,0,.14-.14.09-3.74-.07-3.92-2.1-2.3-15.07,2.54-11.92-8.06,3.17-1.18,10.81,2.6,11.87-.63,1.95-5.96-6.62-2.53-10.87-3.36v-6.99c4.51.98,10.62,2.17,14.99,0Z"/>
      <path class="cls-7" d="M357.65,618.44c1.79.33,5.57-.62,6.84.16,1.52.94,4.62,13.82,8.14,14.82l-.99-14.99h5v22.98l-5.79-.21-9.19-17.77v17.98c0,.2-4,.2-4,0v-22.98Z"/>
      <path class="cls-43" d="M276.73,353.72c-1.39,1.4-3.39,2.34-4.43,4.06-2.09,3.45-1.2,8.72-6.56,9.92,2.28-3.93,5.15-12.71-.24-15.24-6.53-3.07-11.6,4.5-17.08,6.44-5,1.77-1.5-4.61.34-6.68,3.63-4.06,3.12-2.37,5.98-7.5.44-.79,4.97-1.22,5-5.99,6.16,4.16,10.22,11.87,16.98,14.98Z"/>
      <path class="cls-16" d="M459.55,619.93c.75-2.43,15.56-3.27,16.07,3.99.39,5.58-4.04,6.47-4.07,7-.03.69,9.56,12.99,2.5,11.49-3.73-.79-3.32-12.32-9.5-9.99v9s-5,0-5,0c1.04-5.44-1.41-16.9,0-21.48Z"/>
      <path class="cls-25" d="M316.69,641.41v-22.98c9.21-.07,18.54-1.11,19.03,10.45.57,13.62-7.99,13-19.03,12.52Z"/>
      <path class="cls-47" d="M456.55,642.4c-.33.28-3.23.07-4.03-.45-1.54-1-1.14-5.23-2.62-5.58-1.11-.26-6.7-.19-7.71.17-2.17.76-1.29,6.59-6.61,4.86l7.03-22.92c2.65-.12,5.16-.79,6.86,1.53.88,1.2,7.97,21.62,7.08,22.38Z"/>
      <path class="cls-58" d="M410.48,618.56c.94.82,6.42,20.79,7.1,23.84-6.2,1.12-4.37-4.43-5.91-5.56-.9-.66-8.1-.78-8.91-.27s-1.72,7.37-6.14,5.83c-.23-1.41.12-2.65.49-4,.56-2.09,6.33-18.21,6.99-18.99,1.01-1.2,5.62-1.53,6.4-.86Z"/>
      <path class="cls-115" d="M589.42,265.81c.41,7,2.81,3.85,8.99,5.99-3.84,1.91-4.44,5.85-6.57,8.91-.63.91-2.34,1.43-3.28,2.72-2.12,2.92-1.62,7.08-2.8,8.43-3.7,4.27-7.34-.96-10.33-3.08l-.65-2.59c1.73-2.83,8.72-11.6,11.07-14.13.29-.31.88-.33,1.57-.27.84-2.04.78-4.17,2-5.99Z"/>
      <path class="cls-90" d="M381.63,618.44c7.09-.82,18.51-.12,15.22,9.71-2.49,7.45-9.45,4.52-10.24,5.27-.46.44.75,6.12-.45,8.04-.89,1.43-4.53.19-4.53-.04v-22.98Z"/>
      <path class="cls-25" d="M496.52,351.72c-.5-.6-1.19-1.58-.85-2.01,3.28-4.18,10.42-11.76,14.41-15.31l2.43.34c.13.05,1.14-.93,2.68-.27,1.83.78,3.83,3.18,5.07,4.75.1,1.27-17.19,17.06-18.42,17.39-3.24.87-3.62-3.31-5.31-4.88Z"/>
      <path class="cls-16" d="M353.65,618.44c1.63,6.69-5.13,3.25-10,3.99v4.42c4.53,2.09,10.48-2.47,9,4.57h-8s0,7,0,7h9s0,2.99,0,2.99h-13.99v-22.98h13.99Z"/>
      <path class="cls-70" d="M432.57,623.43c-.77.82-6.89-4.69-8.97.5,3.19,4.57,10.29,4.36,10.05,10.96-.32,8.87-13.81,10.86-15.06,1.54.88-.82,11.46,4.82,10.01-1.48-1.02-4.43-8.85-2.64-9.09-10.05-.36-11.15,17.06-5.75,13.06-1.47Z"/>
      <path class="cls-41" d="M512.5,334.74l-15.98,16.98c-.69-.64-2.21-1.25-4-3,2.73-4.05,1.89-9.37,2-13.98,4.8,1.41,10.83,1.48,10.98-5,1.27,2.35,4.54,4.06,6.99,4.99Z"/>
      <path class="cls-12" d="M172.83,617.44c2.72,1.03,9.46,2.12,12.45,2.01,4.9-.18,19.64-5.22,21.9-4.78,1.06.21,2.75,1.96,2.63,3.26-12.36,1.47-24.41,5.41-36.97,4.51.18-1.63-.13-3.35,0-4.99Z"/>
      <path class="cls-85" d="M290.72,399.67l-.86,4.23c4.48,8.75,5.77,19.09,9.06,28.03,1.15,3.12,5.77,7.19,3.79,10.7-3.85-5.84-17.44-38.24-13.83-42.84.37-.46,1.43.03,1.84-.12Z"/>
      <path class="cls-14" d="M248.76,367.7c1.61-.85,10.8-10.29,12.98-7.99,1.42,6.49-3.33,8.52-7.15,12.34-1.14,1.14-2.61.7-1.84,3.64-1.81-3.1-.06-6.54-4-7.99Z"/>
      <path class="cls-9" d="M285.72,341.73c-2.28,2.07-3.54,4.92-5,6.99l-12.99-14.97c6.35.48,12.83,6.07,17.98,7.98Z"/>
      <path class="cls-37" d="M543.47,380.69c-2.78.57-3.72,3.15-5,4.99,1.08-6.96-5.35-10.99-6.99-16.98,7.48-1.23,11.02,5.57,11.98,11.98Z"/>
      <path class="cls-88" d="M587.43,627.43l-3,4c-1.24-2.63-13.39-6.98-14.99-10.98,7.25-1.71,12.11,4.44,17.98,6.98Z"/>
      <path class="cls-80" d="M574.44,559.5c1.68,6.7,10.99,7.08,5,15.5l-4.42-4.59c-1.57-1.63-3.07-5.65-4.58-6.91,1.57-1.39,4.54-1.52,4-4Z"/>
      <path class="cls-40" d="M608.41,411.66l1,2c-3.38,4.45-4.85,8.33-4.07,14.29l-1.92,1.7h-3c-.24-4.99-1.21-14.96,4.05-17.47,1.61-.77,2.69-.29,3.94-.51Z"/>
      <path class="cls-60" d="M607.41,448.62c5.34,2.31,13.49-1.46,15.99,5.48-4.88-1.29-11.11-2.68-15.99-.49,1.18-1.61,1.18-3.39,0-4.99Z"/>
      <path class="cls-110" d="M183.82,429.64c-10.67,8.58-22.3,12.45-31.96,21.98.41-2.05-.7-7.54.13-8.85.51-.8,15.16-4.12,18.07-5.41,3.08-1.37,9.79-6.13,11.76-8.72l2,1Z"/>
      <path class="cls-75" d="M504.51,688.36c2.69,1.26,6.33,1.74,7.99,3.99-45.28,5.75-91.97,20.19-122.38,55.95-27.86-36.51-77.58-50.06-121.37-55.95l12.03-5.44c13.76-7.33,25.58-16.37,35.9-28.05l1.05-.04c30.48,9.82,52.65,30.82,66.76,59.15,1.8,3.62,3.07,8.71,4.91,12.07.63,1.15-.05,1.69,2.21,1.27,11.55-34.47,38.47-61.85,73.31-72.78,4.65,6.1,9.69,10.21,15.62,14.85,7.57,5.92,15.24,10.89,23.98,14.98Z"/>
      <path class="cls-111" d="M231.78,261.81l.98-9.98c.48,3.24,4.8,9.41-.98,9.98Z"/>
      <path class="cls-103" d="M158.84,369.69c-3.28.5-3.58-5.92-3.98-7.99,3.32,1.62,4.58,4.32,3.98,7.99Z"/>
      <path class="cls-104" d="M156.84,527.53c-.24.32-6.84-2.68-6.98-3.99,2.03-1.05,9.47.68,6.98,3.99Z"/>
      <path class="cls-3" d="M145.73,469.71c.27.32.56,3.57-.37,3.87l-5.5-4.98c1.05,0,5.61.8,5.87,1.11Z"/>
      <path class="cls-97" d="M614.4,526.53c2.72,2.16,4.39,5.49,5,9.99,2.92,1.71,5.08,2.61,6.49,5.99,4.27-8.66,13.51-13.44,23.02-14,8.95-.53,5.18,8.66,3.75,14.79-5.08,21.68-23.96,46.8-48.74,44.17-3.94-.42-8.96-4.13-10.75-3.87-3.19.46-5.85,5.49-8.72,6.87-5.3-2.27-.12-7.84,3.61-9.65,1.99-.84,2.72-11.03,2.18-11.25-1.35,2.76-4.77,4.31-5.79.92,1.46-6.77-5.52-6.54-6.76-12.72-.57-2.86-.62-9.8-.17-12.69.59-3.82,4.06-6.32,4.72-9.26,1.16-5.16-1.56-11.4,2.19-15.83.78-.92,2.78-1.14,3.03-2.14.58-2.35-.27-6.41.22-9.55.78-4.97,8.17-20.21,14.26-14.74,1.37,1.23,7.27,14.14,8.22,16.75,1.7,4.67,3.94,11.4,4.25,16.23Z"/>
      <path class="cls-65" d="M628.39,421.64c.06-2.77,4.63-2.33,5.28-.78.74,1.74-2.04,12.12-3.29,14.76-.22,2.67-.72,5.33-.6,8.01l6.58,14.96c5.41-10.55,1.59-21.05.01-31.95,5.69-1.31,4.97-.87,9,1.38.48.27.95-.42.99-.39,2.17-.93,3.76.61,4.78,4.63,4.08-.78,9.03.42,11.62,3.86,1.92,2.55,3.3,12.42-.41,13.49l-1.99.99c3.79.1,10.59-.94,8.8,4.29-1.62,4.71-17.2,2.84-21.83,4.17-3.6,1.03-7.2,5.68-8.57,9.02,1.7,4.41,1.64,8.89,2.62,13.5,1.81.54,3.19,2.35,4.13,5.42,8.86,1.98,12.55,6.68,11.43,15.8.65,1.21,1.12,2.46,1.42,3.75-1.71.5.48,2.17-.43,3.97-2.65,5.27-17.55,3.18-22.58,4.49-4.86,1.27-7.84,6.98-11.95,9.52-2.47-7.91,8.98-14.46,8.98-21.48v-15.48c-14.98,10.7-8.76,30.84-9.99,46.5-.24,3.07.49,2.57-3,2.45-.69-.4-2.28.22-2.86-1.62-.51-1.61-.02-3.67-.15-5.37l-2.98,3.99c.05-2.44,1.16-4.46.99-6.99,1.22-1.21,2.79-.23,3.08-2.43.68-5.08.32-19.29-1.03-24.09-3.21-11.39-16.19-10.93-18.57-14.41-.87-1.27-.41-3.49-.46-5.02,1.53-3.62,5.31-4.74,11.34-3.35,1.51-2.4,3.05-2.95,4.65-1.64,6.45-2.53,9.02-.08,12.84,4.59,1.75-.55,3.47-1.41,5.15-2.59-.51-3.18-1.82-6.11-3.95-8.79l.96-2.2c1.25-.68,2.99-1.63,2.84-3.31-.19-2.11-7.18-14.71-9.55-15.45-10.54-3.27-14.3,2.57-17.27-12.2l3.4-2.74c-.06-8.46,3.51-11.89,10.69-10.27,3.01-1.79,4.97-1.78,5.89.02,1.34-.29,2.15-.88,4-1Z"/>
      <path class="cls-113" d="M630.38,435.63c.39-4.68,1.37-9.33,1.99-13.98-1.32.04-2.67-.09-3.99,0l-4.75-13.74.75-9.23c-1.49.28-2.59,4.57-2.75,5.73-.48,3.41-.17,6.83-.24,10.25-4.6,1.11-4.06-3.53-5.25-4.72-.56-.56-9.36-3.48-12.04-5.44-7.28-5.35-4.43-7.88-7.22-13.76-.82-1.73-4.08-3.71-5.44-5.55-4.81-6.5-3.46-19.53-6-27.47-.67-9.59,12.9,3.63,16.03,6.93,5.59,5.89,7.97,8.62,9.21,17.11.41.45,3.39,2.38,3.33,2.19-1.44-4.36-7.76-16.32-10.9-19.73-11.23-7.49-2.76-11.23,5.07-4.43l9.23,7.91c1.04-.14,1.71-.47,2-1,.42-1.19,1.62-2.18,1-4l2.15,1.02c.5,6.21,2.24,16.31,2.65,3.29l2.2-2.32c4.28-1.01,5.45-17,9.48-15.98,14.21,16.59,29.42,52.73,8,68.92-2.58,1.95-8.26,3.76-9.91,6.07-2.54,3.53-.12,9.6-4.57,11.91Z"/>
      <path class="cls-67" d="M524.49,651.4c3.85.52,6.97,4.84,7.48,4.84.38,0,2.47-2.22,4.21-2.63,6.38-1.5,11.96,1.66,17.36,4.4,1.26,5.88-8.26,9.93-11.98,12.95-4.93,4-9.56,9.19-15.4,11.58-13.72,5.6-24.88,2.24-35.64-7.16,10.18-.89,20.89,2.66,31.03.55,3.05-.64,24.54-10.3,24.91-12.06.19-.89-.9-2.36-1.52-2.48-2.92-.59-27.06,10.58-34.1,10.92-4.22.2-8.09-1.41-12.83-.92-3.43.35-7.77,3.27-9.95,3.03-.31-.03-5.53-2.72-5.53-3.04v-17.48c0-2.4,4.99-11.66,8.99-8.49-.98-6.09,2.18-18.35,8.99-10.99-1.16-7.29,2.58-12.28,8.09-16.4,6.2-4.63,7.65-5.92,9.63,2.19s1.18,17.74,3.27,26.2c2.43,1.47,1.77,2.54-1,3,.41,2.36-6.59,5.93-6.25,5.66,1.59-1.27,4.54-2.88,6.25-3.66.68-2.86,2.76-2.67,4,0Z"/>
      <path class="cls-105" d="M568.44,580.48c.02,6.5,4.4,6.59,9.32,3.88,9.73.98-8.52,21.42-13.31,20.09-1.51,1.43-2.96,7.74-2.64,8.05,1.89,1.86,19.35-13.98,20.62-16.05-1.24-2.31.77-3.64,3-3,.12.21,1.28.94,1.02,1.99.2.16,1.51-.68,1.98-1,2.9.33,2.82,3.21,0,4l.66,1.29c5.15,2.77,9.99,5.49,5.77,12.58-.64,3.05,1.99,5.78,4.56,7.1.56-1.93,1.43-1.92,2,0-1.01,1.23-2.35,1.82-2.97,2.78s-.53,4.28-1.6,4.25c-6.07-.18-15.25-8.04-20.97-8.96-4.01-.64-13.68.71-17.7,1.93-3.04.92.6,9.6,2.27,10.99,3.27-2.39,6.74,1.06,8.42,4.24,1.14,2.16.89,13.42-2.42,13.74-.09,3.13,1.71,4.6.1,8.59-.4.99.51,1.78-1.61,1.42-5.65-.96-14.57-10.32-20.42-11.56-3.15-.67-6.39-.55-9.59-.48-1.09.02-8.99,2.18-8.45.04l2.54-5.11c4.39-.8,7.64-1.69,11.53-4.1,3.32-2.06,10.08-6.78,9.91-9.77-1.06.72-2.28.59-3.68-.39-3.8,5.31-16.89,8.17-12.95-1.22,4.33-3.06,2.54-6.49-5.4-10.27-2.12-1.4-3.41-2.71-1.95-5.11h1c1.18-.69,2.68-.45,4.49.72,8.27-2.46,13.51.44,14.1,9.12,4.25,3.23,5.63.16,3.74-4.04l1.65-1.81c2.5-7.32.95-16.9-3.16-23.31-1.1-1.71-5.03-4.57-4.78-6.05.67-3.91,8.11-3.22,10.94-3.61,2.51-5.03,14.23-10.45,13.99-1Z"/>
      <path class="cls-65" d="M618.4,289.78c2.32.22,7.74,2.02,6.88,5.29-.56,2.14-14.15,14.7-16.38,19.67-2.84,6.31-.98,11.74.54,18,.5-.07.9-1.03.97-1.01,1.2-1.18,3.1-1.17,5.7.03,9.55-4.66,15.47-3.32,17.76,4.04,2.07-.92,3.57-.61,4.51.92,9.94,4.19,4.13,4.1-.33,7.17-4.08,2.81-9.36,7.44-10.44,12.53-.58,2.76.04,5.54-.23,8.27-.4,4.05-.51,8.48-1.01,12.49-.63,5.04-4.45-3.62-4.77-5.22-.53-2.63-.83-6.44-1.22-9.27-.27-1.99.33-4.35-.06-6.43-1.02-5.5-8.95-8.74-12.37-13.62-5.73-8.16-2.74-14.91-13.61-20.35-14.8-7.41-15.52,1.87-25.89,4.03-3.02.63-3.09-.28-5.02-.6-.11-1.8.55-3.89,1.99-6.26-3.17-9.18,2.56-15.32,8.75-21.5l2.25-.21,4.99-1.99c-3.14,16.02,9.01,18.3,18.98,25.97,3.23-15.9-11.88-11.36-14.81-25.67-.65-3.15,5.56-1.35,6.83-1.3,5.39-9.36,10.81-13.84,21.07-6.18,2.3-.25,3.94.14,4.9,1.18Z"/>
      <path class="cls-30" d="M573.44,290.78c2.67,1.28,3.69,4.16,3,6.99-.8,3.24-9.07,10.14-9.83,12.71-1.29,4.4,4.36,9.86-3.16,15.26-11.26-1.85-10.22-9.57-17.53-16.93-1.37-5-.69-11.66,4.55-14.04.87-3.6,8.95-4.42,11.99-4-.04-3.07,5.07-4.09,6.44-1.83,2.09-1.74,4.92-1.19,4.55,1.83Z"/>
      <path class="cls-27" d="M584.43,570.49c.61-.31,2.68.39,3.55-.93.98-1.47.22-6.34.91-9.09,1.47-5.83,8.24-11.57,9.28-17.69l2.25-42.21c1.81.52,1.92,4.93,2.03,6.45.71,10.35.03,22.47,0,33.04,0,3.42-2.32,5.35.95,8.44-6.66.64-9.88,11.77-10.89,17.59-.67,3.89.05,9.79-1.34,13.64-1.8,4.99-8.25,3.33-6.75,10.73.33,1.64.09,1.4,1,3-.31,1.32-1.85,2.42-3,3-4.42,4.28-9.16,8.2-14.23,11.75-6.32,7.69-8.6,2.86-3.75-3.76,3.57-4.56,13.97-11.1,13.97-16.54,0-4.21-6,.12-9.01-1.91-.62-.42-2.78-4.76-.96-5.53,1.97-.53,3.2.52,3.7,3.15,2.19-1.07,4.28-1.46,6.29-1.16,3.85-3.36,4.17-11.05,5.99-11.99Z"/>
      <path class="cls-50" d="M526.49,610.44c2.32,4.99,9.9,5.57,11.6,10.96,1.36,4.32-3.4,4.15-3.6,8.01,8.88,5.11,9.41-9.91,15.98-1.99-1.05,6.45-9.24,7.79-15.25,7.98-3.74,2.42-6.65,6.09-8.73,11-.43,1.31-2.22,3-2,4.99-1.26-.17-2.7.12-4,0-.97.06-.97-.6,0-2,.45-1.03.65-1.96,1-3,4.98-14.86,2.64-22.55-1.99-36.96l6.99.99Z"/>
      <path class="cls-79" d="M662.35,449.61c-.03-8.16,1.93-14.19-7.98-15.59-1.89-.27-4.78.76-4.98.62-.35-.24-.71-5.28-3.02-7-.77-1.63-2.12-2.21.24-3.23,3.16-1.37,16.79-4.27,19.79-3.31,6.17,1.97,5.42,11.71,4.98,17.07-.51,6.14-1.3,13.4-9.03,11.45Z"/>
      <path class="cls-101" d="M592.42,294.78c-7.29-5.96-.44-8.24,2.03-11.72,2.24-3.14,2.36-7.83,7.67-9.04,10.06-2.3,9.78,3.02,13.84,8.71,1.23,1.72,9.6,7.78,2.44,7.05-.48-.05-2.41,1.31-4.4,1.01-4.69-.72-8.68-8.23-15.5-1.43-2.77,2.76-1.19,5.59-6.07,5.42Z"/>
      <path class="cls-4" d="M610.4,331.74c-.02-3.9,9.75-13.11,12.7-13.78,4.37-.99,8.9.4,11.15,4.41.95,1.71.85,3.81,1.72,5.28,1.29,2.19,4.66,5.3,5.39,7.61s-1.8,1.2-2.98,1.48c-1.43.34-4.88,1.61-5.88.89-.52-.38-1.67-6-4.82-6.73-2.28-.53-8.41,2.92-11.81,2.88-2.58-.03-3.64-1.51-5.47-2.03Z"/>
      <path class="cls-4" d="M601.41,619.43c-.66.05-1.35-.08-2,0-2.63-1.25-5.08-3.93-4.59-7,3.9-7.16.4-9.9-6.42-12.54l.02-1.43c.31-.93-.22-2.84,0-4,2.76-1.89,2.65-2.85,7.29-1.79,1.28.29,13.58,7,14.13,7.84,4.84,7.34-4.23,13.83-8.43,18.92Z"/>
      <path class="cls-4" d="M560.45,630.42c-.35-4.86-.5-7.98,5.43-6.97.72.12,11.32,6.63,12.49,7.53,4.48,3.44,4.21,8.93.71,13.07-.64.75-8.58,8.11-9.15,8.33-2.1.82-1.82-3.4-3.48-3.99.12-4.19,1.75-9.48.56-13.05s-4.5-3.23-6.55-4.93Z"/>
      <path class="cls-91" d="M551.46,614.44c.88,4.48,3.26,9.33-3.41,8.95-8.01-.47-.38-10.93-11.07-11.03-4.61-.05-4.99,2.75-9.49-1.91-.6-.62-1.55-2.16-2-3,15.68-8.18,21.59-15.26,25.97,6.99Z"/>
      <path class="cls-52" d="M641.37,481.58c8.6-.55,22.07-4.32,22.91,8.56.32,4.93-3,5.55-2.93,5.9.13.59,1.56,1.82,1.83,3.25.6,3.11-.67,8.26-4.83,7.26-7.28-1.75.3-10.32-6.62-14.85-6.5-4.26-8.14.3-10.36-10.12Z"/>
      <path class="cls-34" d="M562.45,290.78c-4.67-6-5.49-20.74,4.45-7.39,5.82-9.92,7.24-24.32-.84-33.43-15.36-10.08-1.24-16.49,7.52-4.09,5.98,8.47,8.17,23.49,2.36,32.54,2.5-1.89,4.7-4.3,6.12-7.12l2.36-.49,3,1c-2.94,7.1-8.01,10.87-11.99,16.98-.28.42-1.82.94-2,2-3.36-1.61-7.56-1.13-10.99,0Z"/>
      <path class="cls-18" d="M625.4,509.55c-.2-4.31-.01-10.22,3.98-12.99.2,4.31.01,10.22-3.98,12.99Z"/>
      <path class="cls-94" d="M545.46,649.42l-13.97,1.98c-.48-2.86.61-1.66,2.31-2.13,4.08-1.13,7.62-1.33,11.67.15Z"/>
      <path class="cls-66" d="M636.37,449.61c-2.59.44-1.79-.4-2.29-2.16-1.08-3.89-.08-5.98.3-9.81,3.38,2.37,1.56,8.44,1.98,11.98Z"/>
      <path class="cls-71" d="M406.6,468.59c.19,2.58,2.74,3.43,7.66,2.55,3.41,3.9,6.81,6.74,12.08,7.62.49.47,3.81,7.78,1.37,7.7-5.99-1.2-13.87-2.36-17,4.1-2.88-3.77-6.72-4.21-5.1,1.02-.01.98-.09,2.03,0,3-.73,2.4-1.9-1.24-1.77-1.12,7.72,7.29-13.25,14.97-13.42,1.42-2.94-1.33-3.46-3.26-1.01-5.54-.95,1.2-2.21,1.29-3.78.24-2.34,1.62-2.86,1.26-5,2-2.77,1.05-2.76-1.6-3.77-1.97s-2.96.2-3.24-.03c-1.56-1.35,3.79-12.92,6-14.49l-1.99-1.48,5.99-.02c-7.86-4.72-4.18-6.75-5.6-12.06-.82-3.04-3.77-5.82-4.39-8.43-.24-.99-.22-1.76.99-1.48l3.01,2.98v-4.99c.66,1.07,1.47,2.1,2,3,1.78-.18,2.93.98,3.46,3.49,2.59-1.15,5.55-2.03,8.09-.16.4,3.18,3.83,5.3,6.44,3.66,2.3-7.58,5.32-9.75,9.07-6.49.02-3.05.99-4.55,2.92-4.5.16-.4.89-.72,1-1,6.22-3.17,2.38,5.76-.35,9.28,1.67,3.98-.22,9.01-3.65,11.7Z"/>
      <path class="cls-108" d="M385.62,489.57c2.27-1.58,3.11-3.44,4.98-4.99.33,4.81,2.35,5.01-1.99,7.98,5.46-1.07,3.32,5.99,5.94,7.49.29.17,6.04.13,6.77-.18,3.18-1.4,2.26-4.34,2.29-7.29l1.99,1.99c.02.19.83.77.92,1.59,1.52,13.48,2.78,27,5.06,40.37-5.57-6.62-4.67-16.95-7-24.97-1.57.13-1.49,1.57-1.91,2.57-1.34,3.17-7.07,18.69-7.07,20.9v17.48c-1.5.24-1.24-1.86-1.5-2.98-.64-2.76-1.38-6.68-1.53-9.46-.55-9.76,2.81-22.76,1.02-31.98-.33-1.69-1.28-2.46-2.48-3.51-.94,1.88-.57,7.27-2.43,8.55-1.42.97-3.73.29-4.02-1.13-.3-1.5,3.97-7.15.97-8.42-.61,7.98-15.29,17.08-17.48,21.98-1.36,3.04-.91,12.11-1.51,15.97-.04-.27-.91-1.09-1.04-2.42-.65-6.46,3.45-18.11-5.95-14.56,9.52-8.81,19.78-17.16,24.97-29.48,1.61-1.23.26,2.68,4.01,1.5l-3-6.98Z"/>
      <path class="cls-108" d="M417.59,472.59c2.54,1.45,6.93,2.8,11.22,3.75l.77,2.25c-5.69.28,2.61,4.73,3.33,5.16,5.93,3.57,14.08,7.39,20.44,10.53,1.78.88,8.85,2.96,9.2,3.3,3.69,3.62-8.17.73-8.99.49-6.25-1.81-25.28-12.15-29.43-11.54-1.54.23-3.46,1.89-2.53,3.03,1.04,1.28,12.91,4.38,9.49,10l-15.49-10.97c8.13,11.48,13.74,26.36,25.97,33.95-2.83-.66-9.21-4.08-10.51-2-.29.47,1.3,8.82,1.52,10.99-5.77-12-10.13-26.34-18.93-36.51-1.32-1.53-3.32-2.13-4.49-3.55-.65-.78-.87-5.15-3.55-2.9-.14.12,0,2.25,0,3-6.79-8.31-.23-7.44,4.99-2l-.99-3.99c3.48,1.22,5.1-1.92,5.42-1.9,2.82.22,6.24-.17,7.86.06s2.76,2.27,4.69,1.82c-1.88-4.35-9.39-2.13-7.98-6.98.19-.26,5.47,3.93,5.98,1.01-4.38.03-8.91-5.63-11.92-6.57-2.25-.7-5.59.04-7.09-.9-2.33-1.47-.14-2.92.03-3.53l1.02-1.94c1.43.7,3.09,1.01,4.98.94,3.15-1.89,6.49,1.83,5,4.99Z"/>
      <path class="cls-29" d="M453.56,446.62l-7.99,10.98c5.67.63,11.67-1.98,16.98,1-8.17-.77-36.18.2-40.85,7.6-1.24,1.96-1.23,4.18-1.11,6.39-.04,2.1-2.18,1.72-3,0-1.55-1.79-2.68-3.93-5-4.99-3.87-5.42,2.97-10.34,7.66-12.89l.34-2.09c.93-.53,9.03-7.92,9.99-3.48.63,2.92-9.48,4.82-6.5,8.46,9.12-5.06,21.75-3.88,29.48-10.98Z"/>
      <path class="cls-89" d="M420.59,472.59c10.31,1.85,20.52,5.02,30.94,6.52l.51,2.49c-6.95-2.06-15.68-1.63-22.46-3.01-2.01-.41-10.06-2.89-11.36-3.93-1.07-.86-.5-1.92-.63-2.07.96.11,2.09-.16,3,0Z"/>
      <path class="cls-15" d="M395.61,414.65c-1.23,7.28-2.54,18.14-2.99,25.48-.27,4.51-.67,13.78-.03,17.89.2,1.25,3.82.3,5.01.58v1c-.52.99,1.22,3.47-1.51,3.02-2.9-.48-4.33-4.51-6.96-5.56s-5.51,1.59-6.54,1.11c-2.14-.99-2.2-4.26-2.97-5.56,3.47.41,1.4-1.09,1.3-2.79-.19-3.15.02-6.72-.39-9.61-.71-5.11-4.87-9.22-4.9-14.57,6.04,6.27,6.9,16.74,10,24.45.62,1.54.78,2.91,2.97,2.51-2.24-11.8,2.24-23.35,0-34.96,1.37,1.57,2.51,3.26,4.99,3-.42-2.01.97-4.3,1-6h1Z"/>
      <path class="cls-57" d="M374.63,566.49c.93,1.86,3.78,6.25,5,7.99-2.64,2.53-23.6,13.25-24.97,11.98.61-4.38,6.12-5.76,9-8.48,3.88-3.65,6.35-8.58,10.98-11.5Z"/>
      <path class="cls-89" d="M414.6,452.61l.17,1.32c-2.19,1.16-1.92,1.39.83.68,1.69-1,3.83-1.33,5-2,5.54,3.31-3.61,5.55-5.47,8.01-1.64,2.16-1.59,5.43-2.52,6.98-.83,1.37-4.6,4.43-4.63.99h-1.37c1.7-5.99,3.06-11.82,4.85-17.67.51-1.66,2.08-2.14-.85-3.3.54-1.42,1.8-5.78,2.02-6,.12-.12,1.47,1.34,3.49.12,2.33-1.4,13.52-13.27,15.98-16.08,2.66-3.03,5.46-8.75,7.97-11.02,2.72-2.46,2.57,1.78,1.35,4.35-4.16,8.71-19.85,25.02-26.81,33.63Z"/>
      <path class="cls-89" d="M397.61,458.61c2.23-14.63,17.24-24.29,18.99-38.96,2.41-.31,2.26.16,1.79,2.29-1.41,6.52-6.62,18.32-9.63,24.35-.88,1.76-2.37,2.62.84,2.33-.63,1.61-.5,5.86-2.01,7.98l-4.47-3.99c-1.24,2.28-4.47,5-5.51,6.99v-1Z"/>
      <path class="cls-29" d="M415.59,454.61c-1.16.69-2.52,3.75-4.99,2.99.31-2.55,2.94-3.68,4-4.98l1,2Z"/>
      <path class="cls-63" d="M478.53,198.88c1.48-.78,4.16-2.39,4.02.5-.18,3.71-2.61,6.96-3.54,10.46-3.07,11.58.4,15.88,7.51,24.5l-3.98,1.48,24.97-1c-.71-1.59-7.55-4.98-8.49-4.98h-14.49c-.5-6.31,8.35-6.38,9.99-8.99-3.07-1.47.12-7.48,1.96-9.61,4.78-5.53,8.74-4.71,14-.61,1.65-2.25,3.32-2.84,5.02-1.77,2.13-1.4,3.51-2.4,6.06-.39.63,7.35-5.48,15.89-5.11,22.83s6.33,12.73,7.05,19.51l11.97-4.49c-4.7-4.73-13.1-3.75-16.22-9.82-1.05-2.03-.19-1.05.24-1.67l2.37-.86c3.72,1.26,6.43,1.1,8.13-.49-.09-4.67.07-10.96,6.26-9.68,4.4,2.51,8.47,2.86,12.21,1.04,2.4-.69,8.32-2.16,8.94,1.61.31,1.89-10.89,8.11-11.88,14.95-.69,4.74,4.03,18.21,5.94,23.4,1.08,4.62-5.35,2.6-5.99-1-3.48-1.98-5.95-5.72-7.42-11.2-9.22.04-15.22,5.67-18,14.12l-3.55,3.08c.65,1.94-.37,2.32-2,1-.11-1.46-.18-6.28-1.01-7-.63-.54-1.87,1.02-1.98,1.01-2.51,4.15-8.87-.68-8.69-5.02.69-5.27.38-9.56-2.59-14.07l1.3-1.88c9.24-.57,9.88,6.95,17.98,6.98-2.5-2.8-6.84-12.65-10.51-12.98-11.5,1.83-20.96.12-28.87,10.08-1.76,2.22-5.53,10.11-7.09,10.9-1.69.85-3.26-5.79-3.49-6.99-2.61-.73-2.6-1.28,0-2-1.14-1.13-1.24-1.65-.31-1.55-6.97-4.22-7.99-7.01-3.89-14.15l-.79-4.28c.08-1.11-1.28-7.03,1.5-6.97,1,.02,9.75,14.4,15.48,11.47-8.88-9.43-12.54-18.9-27.96-16.49.52-3.86,5.24-4.72,7.45-8.05,1.03-1.55,1.01-2.97,1.54-3.93-2.71-5.82,6.18-8.95,10.51-4.14,1.85-2.92,3.68-3.87,5.48-2.85Z"/>
      <path class="cls-6" d="M584.43,270.8c-2.72,7.62-11.44,11.37-15.97,17.98,1.26-6.27,6.81-11.04,8.3-17.17,2.17-8.97-1.65-25.84-10.73-29.86-2.33-1.03-6.75-1.56-4.59,1.59,1.75,2.56,5.66,3.81,8.2,7.78,5.13,8.01,5,19.25,1.58,27.93-4.46,11.32-5.1,5.65-10.75-.27.58,4.21,2.91,7.44,1.99,11.99-.54.18-1.77,1.55-3.4,2.06-2.67.84-6.35.91-8.59,1.93-1.35-1.76-4.2-.68-6.23-1.26-1.74-.5-3.15-2.06-5.48-2.51-2.49-.49-5.59.27-7.61-.38-2.2-.71-1.83-3.98-3.32-4.93-2.39-1.51-16.17-2.28-9.28-7.37,2.23-1.64,14.97-2.76,18.32-2.44,2.12.2,8.46,1.79,10.32,2.69s9.14,9.49,10.27,8.2c-4.72-17.32-24.5-16.58-38.24-10.77-3.47,1.46-2.79,3.59-5.7,3.78-.87-2.6,1.5-4.82,1.74-6.67.15-1.19-.71-1.88-.74-2.31.68-.3,1.31-.72,2-1,6.15-7,17.81-8.35,26.83-8.1l2.14,2.11c2.04.21,3.5,1.56,5.45,1.97l.55-.97c1.06,2.89,2.04,6.66,4.99,7.99,2-6.93-5.42-11.89-3.76-18.23.28-1.06,1.73-1.83,1.8-3.24.03-.54-2.22-.29-2.79-3.2-.93-4.7-1.56-17.04,6.01-16.11,4.79.59,19.83,10.9,23.14,14.88,5.44,6.53,6.38,16.02,3.58,23.9Z"/>
      <path class="cls-109" d="M590.42,330.74c1.58-1.07,3.97-1.61,5.48-3.71,6.56,2.68,2.96,12.36,6.64,18.06,2.25,3.48,12.58,8.44,15.31,12.66,1.9,2.94,1.68,5.56,1.53,8.95-.17.48.13,1.37,0,2-.29.29-1.37-.79-1.99-1-9.01-9.51-16.54-12.3-29.14-13.82-7-1.75-7.81-11.2-4.83-17.14-1.98-2.71,4.61-8.32,6.99-5.99Z"/>
      <path class="cls-61" d="M494.52,220.86c-2.5-1.06-6.34,2.65-8.02,1.58-1.24-.79-3.03-6.45-3.01-8.09.03-3.61,2.67-4.79,3.58-7.44,1.98-5.78.21-13.07,9.94-13.11,3.39-.01,18.4,7.17,19.1,10.02.45,1.85-.03,3.33-.61,5.05-1.38.91-3.98,3.78-4.64,3.9-2.59.47-7.65-9.15-14.19,1.74-1.2,2-1.4,5.15-2.15,6.35Z"/>
      <path class="cls-83" d="M501.51,243.83c1.31,2.75,3.28,5.83,3.56,8.94.53,5.86-3.16,10.9,6.43,12.04,9.64,16.23-20.02,9.57-23.21,1.74-2.91-7.14.93-8.31,3.45-13.01s1.88-9.23,9.77-9.71Z"/>
      <path class="cls-13" d="M478.53,198.88c-1.24.66-4.06,4.8-4.57,4.92-3.49.82-6-7.77-11.41,2.07-3.66,2.74-6.76,11.25-10.82,5.32-3.57-5.23-1.44-11.23.96-16.68,6.86-15.56,12.39-6.09,23.36-1.65l2.48,6.02Z"/>
      <path class="cls-72" d="M590.42,330.74c-2.3,1.55-5.15,3.92-6.99,5.99-2.63,4.49-1.71,9.46.34,13.99-.01.4-3.93,3.27-5.33,3.99-8.2-.04-7.74-12.4-11.8-17.71-.56-4.11,3.91-9.72,7.76-10.81,1.94-.55,14.74-1.79,16.51-1.46,4.85.9,1.19,3.67-.49,5.99Z"/>
      <path class="cls-100" d="M583.43,336.73c-5.25,19.12,9.9,14.21,21.36,19.09,5.4,2.3,8.7,7.66,12.6,11.88-5.94-2.03-9.51-7.34-14.94-9.54-1.3-.53-3.44-1.44-3.03,1.03,9.96,5.14,10.55,13.9,15.12,21.85,4.54,7.89,10.82,9.87,4.36,21.61-2.82-5.14-1.21-11.74-5.48-16.49-1.24-1.37-3.71-1.98-4.49-3.5-1.65-3.19-1.04-7.52-4.08-11.9-1.14-1.65-15.07-14.1-16.46-14.6-2.59-.94-2.37,1.27-2.96,1.55-.4.19-1.4-.13-2,0-.75-1.77-2.08-2.77-4-3-.24.07-.66,0-1,0,8.29-6.32-1.18-11.04,5-17.98Z"/>
      <path class="cls-83" d="M548.46,223.85c-.84,1.61-2.57,2.38-4.29,2.38-9.99-3.41-14.8-4.96-14.2,7.99-.95,1.28-8.06.57-8.48-1.37-1.86-1.04-.89-3.59-.72-5.19.89-8.29,1.36-18.04,12.98-15.57,1.13.24,12.38,4.45,13.07,4.92,2.71,1.82,3.88,4.15,1.64,6.85Z"/>
      <path class="cls-87" d="M464.55,229.85c.56,1.61.95,3.15.69,4.86-4.64,6.98-2.18,9.65,4.31,13.86v1.26c.06.66-.11,1.41,0,2,0,2.68.89,3.31-2.38,2.89-5.85-.74-15.63-1.9-16.33-9.53-.07-.81,5.4-13.37,6.18-14.39,1.23-1.61,3.3-2.87,5.07-3.84.33.03,2.07,2.29,2.47,2.89Z"/>
      <path class="cls-42" d="M548.46,223.85v1c-.83.24-1.53,2.1-4.49,2.06-7.37-.11-14-9.51-13.5,8.92l-10.98-1c.29-.41,1.86-1.98,2-2,.76-.08,6.88,2.15,8,1,.42-.43-1.31-9.29,3.69-10.81,6.05-1.84,9.62,5.77,15.28.82Z"/>
      <path class="cls-64" d="M583.43,357.71h-1c-.2-.27-3.65-.32-3-3,1.26-.38,3.48-3.39,3.98-2.99.43,2.15,1.63,4.02.01,5.99Z"/>
      <path class="cls-106" d="M524.49,712.34c-.55.54-12.89.74-15.37,1.11-34.28,5.24-76.04,20.01-100.57,45.28-2.36,2.43-9.6,13.21-10.95,14.02-2.34,1.42-8.27-.19-11.36,1.27-6.67-6.82-11.86-14.3-19.13-20.71-25.33-22.35-62.06-34.43-95-39.86-5.89-.97-17.51,1.39-15.37-7.11,50.29,1.53,99.69,23.74,133.51,60.86,1.54.27,10.9-10.15,12.88-11.89,22.08-19.4,47.55-33.92,75.98-41.9,14.95-4.2,29.98-6.19,45.37-8.07-.22,1.34.34,6.67.01,7Z"/>
      <path class="cls-77" d="M394.61,414.65h-1.99s-3.99-38.95-3.99-38.95c1.5.21,1.64,4.3,1.85,5.63,1.23,7.79,1.45,15.88,2.24,23.73.33,3.24,1.97,5.93,1.89,9.59Z"/>
      <path class="cls-52" d="M628.39,466.6c1.17,1.83,5.48,8.21,4.82,9.81-.12.28-1.36.72-1.83,1.18-4.55,3.09-5.4,3.62-8.61-1.27-3.41-2.42-5.46-1.85-9.37-.73-1.41.89-3.31,3.22-3.94,3.45-1.58.59-8.81-1.38-12.04,1.54-.21-6.06,7.28-22.22,13.25-24.2,9.45-3.12,13.26,3.27,17.72,10.21Z"/>
      <path class="cls-98" d="M578.44,582.47c-.43.37-.31,1.16-1.71,1.74-7.51,3.15-5.61.14-8.29-3.74-2.15-3.13-4.65-4.33-8.3-2.05-2.43,1.52.27,2.23-5.69,3.04-1.15-1.66-6.74.23-5.98-2.48.6-2.12,8.73-13.13,11.02-13.96,7.93-2.88,9.05,3.16,12.52,7.36,2.36,2.86,6.86,5.04,6.41,10.07Z"/>
      <path class="cls-62" d="M624.39,422.64c-2.03.44-3.65,1.59-5.55,1.94-2.03.38-6.19-.49-7.3.19-2.14,1.32,1.19,12.82-7.13,10.85-.47-2.32-.88-3.26-1-5.99-.22-5.28-1.08-14.91,5.99-15.98,3.62-.55,14.38,4.34,14.99,8.99Z"/>
      <path class="cls-76" d="M615.39,515.54l-10.97-22.97c10.07,2.93,11.63,13.86,10.97,22.97Z"/>
      <path class="cls-24" d="M362.63,561.49l-.51-3.01,4.51-11.96c.91,5.5-2.72,9.9-4,14.97Z"/>
      <path class="cls-20" d="M490.18,319.84c5.95-1.73,12.13,13.14,1.78,8.96-4.66-1.88-5.98-7.74-1.78-8.96Z"/>
      <path class="cls-39" d="M526.98,371.72c1.68,1.59,3.75,3.31,4.29,5.68,3,13.12-17.27,3.21-4.29-5.68Z"/>
      <path class="cls-95" d="M386.62,204.87l5.49-17.99c1.33,2.56,4.99,16.56,6.45,17.53,2.25,1.5,10.85-.15,14.03.47-1.49,3.51-8.84,5.28-9.82,8.71-1.07,3.73,3.13,11.17,3.83,15.25-1.55,1.31-10.73-7.92-14.49-7.91s-9.14,6.96-12.97,7.93c-1.22-5.05,3.8-10.22,2.3-15.28-1.04-3.49-8.28-5.16-9.8-8.71h14.99Z"/>
      <path class="cls-26" d="M464.68,628.3c-1.9-1.19-.55-8.68,3.88-6.4,4.94,2.55.4,9.08-3.88,6.4Z"/>
      <path class="cls-78" d="M320.69,623.93c.93-3.33,7.03-1.97,8.76-.27,1.55,1.53,1.67,8.99,1.04,11.07-.95,3.14-6.87,3.92-9.8,3.69.69-3.94-.96-11.07,0-14.48Z"/>
      <polygon class="cls-35" points="448.56 633.41 442.57 633.41 445.58 623.44 448.56 633.41"/>
      <path class="cls-68" d="M410.59,633.41c-2.38-.08-5.32.81-6.95-1.48l3.47-8.5,3.49,9.98Z"/>
      <path class="cls-11" d="M391.36,622.7c3.09,3.21.28,8.72-4.74,6.73-.91-3.58.46-11.17,4.74-6.73Z"/>
      <path class="cls-102" d="M597.42,580.47l18.45-11c10.02-12.48,21.72-23.14,33.48-33.94-1.59,12.12-12.55,16.78-19.48,24.96-4.23,4.99-6.41,10.71-12,14.97-7.18,5.47-12.18,3.37-20.45,5.01Z"/>
      <path class="cls-99" d="M631.38,477.59c-7.98,8.03-5.75.42-10-1.49-2.48-1.11-5.4-.33-7.98-.51,9.15-5.78,10.55,3.52,13.47,3.72.91.06,3.01-1.94,4.51-1.73Z"/>
      <path class="cls-102" d="M640.36,358.72c.73.7,3.7,10.84,3.9,12.59.98,8.46-1.22,13.1-1.84,19.93-.92,10.09,2.1,14.26-4.46,23.54-.36.5-1.19,3.7-2.58,1.87-.73-.96,1.83-12.12,2.03-14.53s-.91-4.42-.78-6.68c.3-5.24,3.52-10.68,3.79-16.22.32-6.67-2.95-12.24-2.04-19.03.18-1.38.5-2.89,1.98-1.47Z"/>
      <path class="cls-54" d="M520.49,651.4c-.19.36-5.29,5.69-5.68,5.81-3.3,1.01-8-.8-11.29.7-3.8,1.73-9.52,15.33-18,13.46,12.46-14.38,25.06-29.14,26.98-48.94,1.69-.02,2.17-.57,1.92,1.41-1.42,11.25-4.78,19.2-8.92,29.55,6.31.14,10.55,1.13,14.98-3.99-.21.48.22,1.6,0,2Z"/>
      <path class="cls-96" d="M550.46,627.43c.77-.64,3.13-2.93,3.99-1.5-5.26,6.83-10.6,13.02-18.97,16-2.96,1.05-7.89.09-9,4.49.69-2.12.66-4.19,1.81-6.68,4.26-9.26,8.18-4.95,16.14-7.83,3.77-1.37,3.77-2.61,6.02-4.47Z"/>
      <path class="cls-40" d="M582.43,596.46c-2.22,4.41-6.05,9.5-9.97,12.51-4.43,3.4-11.33,4.17-13.02,9.46-1.64.27-.97-1.24-.77-2.25.97-4.95,2.87-8.01,5.77-11.72l-1.99,5.5c2.04,1.96,3.16-2.13,4.34-3.15,5.19-4.47,9.65-7.33,15.63-10.34Z"/>
      <path class="cls-46" d="M599.41,619.43c-2.16.26-6.19-3.59-6.02-6.41.15-2.42,3.04-4.48,1.89-7.91-.63-1.88-6.73-4.07-8.86-4.68-.56-1.4,1.65-.98,1.99-1.99,3.5,2.76,9.62,3.86,9,9.4-.57,5.05-3.95,5.44,1.99,11.58Z"/>
      <path class="cls-49" d="M410.6,483.57c-.96.78-8.04-2.98-9.49-3.99-3.71-2.58-11.02-8.43-14.5-11.47-1.17-1.02-9.68-9.81-8.98-10.49l10.67,8.8c1.6,1.64,24.43,15.4,22.3,17.15Z"/>
      <path class="cls-38" d="M545.47,263.81c-11.51-1.16-18.84,1.85-28.97,5.99,4.25-9.17,5.01-14.45,15.16-18.3,2.44-.93,6.31.41,5.83-2.66,1.33-1.52,6.55,13.46,7.98,14.97Z"/>
      <path class="cls-51" d="M469.54,249.83c-2.6-2.69-7.42-4.38-7.76-8.66-.15-1.97,2.05-3.98,2.54-6.08.43-1.83.1-3.5.22-5.24,3.82,5.65,0,5.51-.84,9.74-1.03,5.16,4.53,5.77,6.42,8.28.93,1.23-.59,1.85-.59,1.96Z"/>
      <path class="cls-55" d="M539.47,635.43c-.92,2.56-3.81,3.03-5.98,3.99-.09-3.32,3.14-4.38,5.98-3.99Z"/>
      <path class="cls-32" d="M540.47,260.81c-5.77-.46-11.38.86-16.98,2,3.49-7.32,15.36-14.09,16.98-2Z"/>
    </g>
  </g>
</svg>